  0
SECTION
  2
HEADER
  9
$ACADVER
  1
AC1009
  9
$INSBASE
 10
0.0
 20
0.0
 30
0.0
  9
$EXTMIN
 10
96.385506215887446
 20
13.7078978540511898
 30
0.0
  9
$EXTMAX
 10
147.8448320353325869
 20
103.2566749702754976
 30
0.0
  9
$LIMMIN
 10
0.0
 20
0.0
  9
$LIMMAX
 10
12.0
 20
9.0
  9
$ORTHOMODE
 70
     0
  9
$REGENMODE
 70
     1
  9
$FILLMODE
 70
     1
  9
$QTEXTMODE
 70
     0
  9
$MIRRTEXT
 70
     0
  9
$DRAGMODE
 70
     2
  9
$LTSCALE
 40
1.0
  9
$OSMODE
 70
   288
  9
$ATTMODE
 70
     1
  9
$TEXTSIZE
 40
10.0
  9
$TRACEWID
 40
0.05
  9
$TEXTSTYLE
  7
ROMAN
  9
$CLAYER
  8
0
  9
$CELTYPE
  6
BYLAYER
  9
$CECOLOR
 62
   256
  9
$DIMSCALE
 40
1.0
  9
$DIMASZ
 40
2.5
  9
$DIMEXO
 40
0.625
  9
$DIMDLI
 40
3.75
  9
$DIMRND
 40
0.0
  9
$DIMDLE
 40
0.0
  9
$DIMEXE
 40
1.25
  9
$DIMTP
 40
0.0
  9
$DIMTM
 40
0.0
  9
$DIMTXT
 40
2.5
  9
$DIMCEN
 40
2.5
  9
$DIMTSZ
 40
0.0
  9
$DIMTOL
 70
     0
  9
$DIMLIM
 70
     0
  9
$DIMTIH
 70
     0
  9
$DIMTOH
 70
     0
  9
$DIMSE1
 70
     0
  9
$DIMSE2
 70
     0
  9
$DIMTAD
 70
     1
  9
$DIMZIN
 70
     8
  9
$DIMBLK
  1

  9
$DIMASO
 70
     1
  9
$DIMSHO
 70
     1
  9
$DIMPOST
  1

  9
$DIMAPOST
  1

  9
$DIMALT
 70
     0
  9
$DIMALTD
 70
     3
  9
$DIMALTF
 40
0.03937007874016
  9
$DIMLFAC
 40
1.0
  9
$DIMTOFL
 70
     1
  9
$DIMTVP
 40
0.0
  9
$DIMTIX
 70
     0
  9
$DIMSOXD
 70
     0
  9
$DIMSAH
 70
     0
  9
$DIMBLK1
  1

  9
$DIMBLK2
  1

  9
$DIMSTYLE
  2
ISO-25
  9
$DIMCLRD
 70
     0
  9
$DIMCLRE
 70
     0
  9
$DIMCLRT
 70
     0
  9
$DIMTFAC
 40
1.0
  9
$DIMGAP
 40
0.625
  9
$LUNITS
 70
     2
  9
$LUPREC
 70
     2
  9
$SKETCHINC
 40
0.1
  9
$FILLETRAD
 40
0.0
  9
$AUNITS
 70
     0
  9
$AUPREC
 70
     0
  9
$MENU
  1
.
  9
$ELEVATION
 40
0.0
  9
$PELEVATION
 40
0.0
  9
$THICKNESS
 40
0.0
  9
$LIMCHECK
 70
     0
  9
$BLIPMODE
 70
     0
  9
$CHAMFERA
 40
0.0
  9
$CHAMFERB
 40
0.0
  9
$SKPOLY
 70
     0
  9
$TDCREATE
 40
2459699.3544675931334496
  9
$TDUPDATE
 40
2459699.3926157411187887
  9
$TDINDWG
 40
0.0381481481
  9
$TDUSRTIMER
 40
0.0381481481
  9
$USRTIMER
 70
     1
  9
$ANGBASE
 50
0.0
  9
$ANGDIR
 70
     0
  9
$PDMODE
 70
     0
  9
$PDSIZE
 40
0.0
  9
$PLINEWID
 40
0.0
  9
$COORDS
 70
     1
  9
$SPLFRAME
 70
     0
  9
$SPLINETYPE
 70
     6
  9
$SPLINESEGS
 70
     8
  9
$ATTDIA
 70
     1
  9
$ATTREQ
 70
     1
  9
$HANDLING
 70
     1
  9
$HANDSEED
  5
20FC
  9
$SURFTAB1
 70
     6
  9
$SURFTAB2
 70
     6
  9
$SURFTYPE
 70
     6
  9
$SURFU
 70
     6
  9
$SURFV
 70
     6
  9
$UCSNAME
  2

  9
$UCSORG
 10
0.0
 20
0.0
 30
0.0
  9
$UCSXDIR
 10
1.0
 20
0.0
 30
0.0
  9
$UCSYDIR
 10
0.0
 20
1.0
 30
0.0
  9
$PUCSNAME
  2

  9
$PUCSORG
 10
0.0
 20
0.0
 30
0.0
  9
$PUCSXDIR
 10
1.0
 20
0.0
 30
0.0
  9
$PUCSYDIR
 10
0.0
 20
1.0
 30
0.0
  9
$USERI1
 70
     0
  9
$USERI2
 70
     0
  9
$USERI3
 70
     0
  9
$USERI4
 70
     0
  9
$USERI5
 70
     0
  9
$USERR1
 40
0.0
  9
$USERR2
 40
0.0
  9
$USERR3
 40
0.0
  9
$USERR4
 40
0.0
  9
$USERR5
 40
0.0
  9
$WORLDVIEW
 70
     1
  9
$SHADEDGE
 70
     3
  9
$SHADEDIF
 70
    70
  9
$TILEMODE
 70
     1
  9
$MAXACTVP
 70
    64
  9
$PLIMCHECK
 70
     0
  9
$PEXTMIN
 10
25.6999999999999886
 20
19.5
 30
0.0
  9
$PEXTMAX
 10
231.3000000000000114
 20
175.5
 30
0.0
  9
$PLIMMIN
 10
-20.0
 20
-7.5
  9
$PLIMMAX
 10
277.0
 20
202.5
  9
$UNITMODE
 70
     0
  9
$VISRETAIN
 70
     1
  9
$PLINEGEN
 70
     0
  9
$PSLTSCALE
 70
     1
  0
ENDSEC
  0
SECTION
  2
TABLES
  0
TABLE
  2
VPORT
 70
     1
  0
VPORT
  2
*ACTIVE
 70
     0
 10
0.0
 20
0.0
 11
1.0
 21
1.0
 12
143.0564733748400101
 22
85.6660987572544457
 13
0.0
 23
0.0
 14
0.5
 24
0.5
 15
0.5
 25
0.5
 16
0.0
 26
0.0
 36
1.0
 17
0.0
 27
0.0
 37
0.0
 40
176.3229875172575021
 41
1.95625
 42
50.0
 43
0.0
 44
0.0
 50
0.0
 51
0.0
 71
     0
 72
  1000
 73
     1
 74
     3
 75
     0
 76
     0
 77
     0
 78
     0
  0
ENDTAB
  0
TABLE
  2
LTYPE
 70
     3
  0
LTYPE
  2
CONTINUOUS
 70
     0
  3
Solid line
 72
    65
 73
     0
 40
0.0
  0
LTYPE
  2
CENTER
 70
     0
  3
Center ____ _ ____ _ ____ _ ____ _ ____ _ ____
 72
    65
 73
     4
 40
50.7999999999999972
 49
31.75
 49
-6.3499999999999988
 49
6.3499999999999988
 49
-6.3499999999999988
  0
ENDTAB
  0
TABLE
  2
LAYER
 70
     2
  0
LAYER
  2
0
 70
     0
 62
     7
  6
CONTINUOUS
  0
LAYER
  2
TITLE_BLOCK
 70
     0
 62
     7
  6
CONTINUOUS
  0
ENDTAB
  0
TABLE
  2
STYLE
 70
     2
  0
STYLE
  2
STANDARD
 70
     0
 40
0.0
 41
1.0
 50
0.0
 71
     0
 42
0.2
  3
simplex.shx
  4
chineset.shx
  0
STYLE
  2
ROMAN
 70
     0
 40
0.0
 41
1.0
 50
0.0
 71
     0
 42
10.0
  3
romans
  4
chineset.shx
  0
ENDTAB
  0
TABLE
  2
VIEW
 70
     4
  0
ENDTAB
  0
TABLE
  2
UCS
 70
     0
  0
ENDTAB
  0
TABLE
  2
APPID
 70
    15
  0
APPID
  2
ACAD
 70
     0
  0
APPID
  2
DCO15
 70
     0
  0
APPID
  2
ACAD_PSEXT
 70
     0
  0
APPID
  2
PE_URL
 70
     0
  0
APPID
  2
ACAECLAYERSTANDARD
 70
     0
  0
APPID
  2
ACDBBLOCKREPETAG
 70
     0
  0
APPID
  2
ACDBDYNAMICBLOCKTRUENAME
 70
     0
  0
APPID
  2
ACDBDYNAMICBLOCKGUID
 70
     0
  0
APPID
  2
ACDBBLOCKREPBTAG
 70
     0
  0
APPID
  2
ACAD_NAV_VCDISPLAY
 70
     0
  0
APPID
  2
GRADIENTCOLOR1ACI
 70
     0
  0
APPID
  2
GRADIENTCOLOR2ACI
 70
     0
  0
APPID
  2
CONTENTBLOCKDESCRIPTION
 70
     0
  0
APPID
  2
CONTENTBLOCKICON
 70
     0
  0
APPID
  2
ACAD_MLEADERVER
 70
     0
  0
ENDTAB
  0
TABLE
  2
DIMSTYLE
 70
     3
  0
DIMSTYLE
  2
ISO-25
 70
     0
  3

  4

  5

  6

  7

 40
1.0
 41
2.5
 42
0.625
 43
3.75
 44
1.25
 45
0.0
 46
0.0
 47
0.0
 48
0.0
140
2.5
141
2.5
142
0.0
143
0.03937007874016
144
1.0
145
0.0
146
1.0
147
0.625
 71
     0
 72
     0
 73
     0
 74
     0
 75
     0
 76
     0
 77
     1
 78
     8
170
     0
171
     3
172
     1
173
     0
174
     0
175
     0
176
     0
177
     0
178
     0
  0
DIMSTYLE
  2
STANDARD
 70
     0
  3

  4

  5

  6

  7

 40
1.0
 41
0.18
 42
0.0625
 43
0.38
 44
0.18
 45
0.0
 46
0.0
 47
0.0
 48
0.0
140
0.18
141
0.09
142
0.0
143
25.3999999999999986
144
1.0
145
0.0
146
1.0
147
0.09
 71
     0
 72
     0
 73
     1
 74
     1
 75
     0
 76
     0
 77
     0
 78
     0
170
     0
171
     2
172
     0
173
     0
174
     0
175
     0
176
     0
177
     0
178
     0
  0
ENDTAB
  0
ENDSEC
  0
SECTION
  2
BLOCKS
  0
BLOCK
  8
0
  2
$MODEL_SPACE
 70
     0
 10
0.0
 20
0.0
 30
0.0
  3
$MODEL_SPACE
  1

  0
ENDBLK
  5
21
  8
0
  0
BLOCK
 67
     1
  8
0
  2
$PAPER_SPACE
 70
     0
 10
0.0
 20
0.0
 30
0.0
  3
$PAPER_SPACE
  1

  0
ENDBLK
  5
1459
 67
     1
  8
0
  0
BLOCK
  8
0
  2
標題欄框
 70
     2
 10
0.0
 20
0.0
 30
0.0
  3
標題欄框
  1

  0
POLYLINE
  5
BD7
  8
TITLE_BLOCK
 66
     1
 10
0.0
 20
0.0
 30
0.0
 70
     1
 40
2.399999999999999
 41
2.399999999999999
  0
VERTEX
  5
2003
  8
TITLE_BLOCK
 10
789.0
 20
531.0
 30
0.0
 42
0.4142135623730951
  0
VERTEX
  5
2004
  8
TITLE_BLOCK
 10
765.0
 20
555.0
 30
0.0
  0
VERTEX
  5
2005
  8
TITLE_BLOCK
 10
36.0
 20
555.0
 30
0.0
 42
0.4142135623730951
  0
VERTEX
  5
2006
  8
TITLE_BLOCK
 10
12.0
 20
531.0
 30
0.0
  0
VERTEX
  5
2007
  8
TITLE_BLOCK
 10
12.0
 20
36.0
 30
0.0
 42
0.4142135623730951
  0
VERTEX
  5
2008
  8
TITLE_BLOCK
 10
36.0
 20
12.0
 30
0.0
  0
VERTEX
  5
2009
  8
TITLE_BLOCK
 10
765.0
 20
12.0
 30
0.0
 42
0.4142135623730951
  0
VERTEX
  5
200A
  8
TITLE_BLOCK
 10
789.0
 20
36.0
 30
0.0
  0
SEQEND
  5
200B
  8
TITLE_BLOCK
  0
POLYLINE
  5
BD8
  8
TITLE_BLOCK
 66
     1
 10
0.0
 20
0.0
 30
0.0
 70
     1
 40
1.1999999999999991
 41
1.1999999999999991
  0
VERTEX
  5
200C
  8
TITLE_BLOCK
 10
771.0
 20
531.0
 30
0.0
 42
0.4142135623730951
  0
VERTEX
  5
200D
  8
TITLE_BLOCK
 10
765.0
 20
537.0
 30
0.0
  0
VERTEX
  5
200E
  8
TITLE_BLOCK
 10
693.0
 20
537.0
 30
0.0
 42
0.4142135623730951
  0
VERTEX
  5
200F
  8
TITLE_BLOCK
 10
687.0
 20
531.0
 30
0.0
  0
VERTEX
  5
2010
  8
TITLE_BLOCK
 10
687.0
 20
186.0
 30
0.0
 42
0.4142135623730951
  0
VERTEX
  5
2011
  8
TITLE_BLOCK
 10
693.0
 20
180.0
 30
0.0
  0
VERTEX
  5
2012
  8
TITLE_BLOCK
 10
765.0
 20
180.0
 30
0.0
 42
0.4142135623730951
  0
VERTEX
  5
2013
  8
TITLE_BLOCK
 10
771.0
 20
186.0
 30
0.0
  0
SEQEND
  5
2014
  8
TITLE_BLOCK
  0
POLYLINE
  5
BD9
  8
TITLE_BLOCK
 66
     1
 10
0.0
 20
0.0
 30
0.0
 70
     1
 40
1.1999999999999991
 41
1.1999999999999991
  0
VERTEX
  5
2015
  8
TITLE_BLOCK
 10
765.0
 20
543.0
 30
0.0
  0
VERTEX
  5
2016
  8
TITLE_BLOCK
 10
693.0
 20
543.0
 30
0.0
 42
0.4142135623730951
  0
VERTEX
  5
2017
  8
TITLE_BLOCK
 10
681.0
 20
531.0
 30
0.0
  0
VERTEX
  5
2018
  8
TITLE_BLOCK
 10
681.0
 20
36.0
 30
0.0
 42
0.4142135623730951
  0
VERTEX
  5
2019
  8
TITLE_BLOCK
 10
693.0
 20
24.0
 30
0.0
  0
VERTEX
  5
201A
  8
TITLE_BLOCK
 10
765.0
 20
24.0
 30
0.0
 42
0.4142135623730951
  0
VERTEX
  5
201B
  8
TITLE_BLOCK
 10
777.0
 20
36.0
 30
0.0
  0
VERTEX
  5
201C
  8
TITLE_BLOCK
 10
777.0
 20
531.0
 30
0.0
 42
0.4142135623730951
  0
SEQEND
  5
201D
  8
TITLE_BLOCK
  0
POLYLINE
  5
BDA
  8
TITLE_BLOCK
 66
     1
 10
0.0
 20
0.0
 30
0.0
 40
0.6000000000000001
 41
0.6000000000000001
  0
VERTEX
  5
201E
  8
TITLE_BLOCK
 10
687.0
 20
528.0
 30
0.0
  0
VERTEX
  5
201F
  8
TITLE_BLOCK
 10
771.0
 20
528.0
 30
0.0
  0
SEQEND
  5
2020
  8
TITLE_BLOCK
  0
TEXT
  5
BDB
  8
TITLE_BLOCK
 10
716.1020571428571202
 20
531.1871999999999616
 30
0.0
 40
2.3999999999999999
  1
一般附註
  7
ROMAN
 72
     1
 11
728.9591999999998961
 21
532.3872000000000071
 31
0.0
 73
     2
  0
TEXT
  5
BDC
  8
TITLE_BLOCK
 10
759.3540571428570729
 20
183.6816000000000031
 30
0.0
 40
2.3999999999999999
  1
日期
  7
ROMAN
 72
     1
 11
763.411200000000008
 21
184.8815999999999917
 31
0.0
 73
     2
  0
TEXT
  5
BDD
  8
TITLE_BLOCK
 10
690.4121142857142104
 20
183.6816000000000031
 30
0.0
 40
2.3999999999999999
  1
No.
  7
ROMAN
 72
     1
 11
693.3264000000000351
 21
184.8815999999999917
 31
0.0
 73
     2
  0
POLYLINE
  5
BDE
  8
TITLE_BLOCK
 66
     1
 10
0.0
 20
0.0
 30
0.0
 40
0.6000000000000001
 41
0.6000000000000001
  0
VERTEX
  5
2021
  8
TITLE_BLOCK
 10
687.0
 20
189.0
 30
0.0
  0
VERTEX
  5
2022
  8
TITLE_BLOCK
 10
771.0
 20
189.0
 30
0.0
  0
SEQEND
  5
2023
  8
TITLE_BLOCK
  0
POLYLINE
  5
BDF
  8
TITLE_BLOCK
 66
     1
 10
0.0
 20
0.0
 30
0.0
 40
0.6000000000000001
 41
0.6000000000000001
  0
VERTEX
  5
2024
  8
TITLE_BLOCK
 10
687.0
 20
198.0
 30
0.0
  0
VERTEX
  5
2025
  8
TITLE_BLOCK
 10
771.0
 20
198.0
 30
0.0
  0
SEQEND
  5
2026
  8
TITLE_BLOCK
  0
POLYLINE
  5
BE0
  8
TITLE_BLOCK
 66
     1
 10
0.0
 20
0.0
 30
0.0
 40
0.6000000000000001
 41
0.6000000000000001
  0
VERTEX
  5
2027
  8
TITLE_BLOCK
 10
687.0
 20
207.0
 30
0.0
  0
VERTEX
  5
2028
  8
TITLE_BLOCK
 10
771.0
 20
207.0
 30
0.0
  0
SEQEND
  5
2029
  8
TITLE_BLOCK
  0
TEXT
  5
BE1
  8
TITLE_BLOCK
 10
690.7296000000000049
 20
169.7064000000000021
 30
0.0
 40
1.5600000000000001
  1
公司名稱和地址
  7
ROMAN
  0
TEXT
  5
BE2
  8
TITLE_BLOCK
 10
690.7296000000000049
 20
115.7064000000000021
 30
0.0
 40
1.5600000000000001
  1
專案名稱和地址
  7
ROMAN
  0
POLYLINE
  5
BE3
  8
TITLE_BLOCK
 66
     1
 10
0.0
 20
0.0
 30
0.0
 70
     1
 40
1.2
 41
1.2
  0
VERTEX
  5
202A
  8
TITLE_BLOCK
 10
693.0
 20
126.0
 30
0.0
  0
VERTEX
  5
202B
  8
TITLE_BLOCK
 10
765.0
 20
126.0
 30
0.0
 42
0.4142135623730951
  0
VERTEX
  5
202C
  8
TITLE_BLOCK
 10
771.0
 20
132.0
 30
0.0
  0
VERTEX
  5
202D
  8
TITLE_BLOCK
 10
771.0
 20
168.0
 30
0.0
 42
0.4142135623730951
  0
VERTEX
  5
202E
  8
TITLE_BLOCK
 10
765.0
 20
174.0
 30
0.0
  0
VERTEX
  5
202F
  8
TITLE_BLOCK
 10
693.0
 20
174.0
 30
0.0
 42
0.4142135623730951
  0
VERTEX
  5
2030
  8
TITLE_BLOCK
 10
687.0
 20
168.0
 30
0.0
  0
VERTEX
  5
2031
  8
TITLE_BLOCK
 10
687.0
 20
132.0
 30
0.0
 42
0.4142135623730951
  0
SEQEND
  5
2032
  8
TITLE_BLOCK
  0
POLYLINE
  5
BE4
  8
TITLE_BLOCK
 66
     1
 10
0.0
 20
0.0
 30
0.0
 40
0.6000000000000001
 41
0.6000000000000001
  0
VERTEX
  5
2033
  8
TITLE_BLOCK
 10
699.0
 20
180.0
 30
0.0
  0
VERTEX
  5
2034
  8
TITLE_BLOCK
 10
699.0
 20
207.0
 30
0.0
  0
SEQEND
  5
2035
  8
TITLE_BLOCK
  0
TEXT
  5
BE5
  8
TITLE_BLOCK
 10
715.9306285714285423
 20
183.6816000000000031
 30
0.0
 40
2.3999999999999999
  1
修訂/議題
  7
ROMAN
 72
     1
 11
728.9591999999998961
 21
184.8815999999999917
 31
0.0
 73
     2
  0
POLYLINE
  5
BE6
  8
TITLE_BLOCK
 66
     1
 10
0.0
 20
0.0
 30
0.0
 40
0.6000000000000001
 41
0.6000000000000001
  0
VERTEX
  5
2036
  8
TITLE_BLOCK
 10
756.0
 20
180.0
 30
0.0
  0
VERTEX
  5
2037
  8
TITLE_BLOCK
 10
756.0
 20
207.0
 30
0.0
  0
SEQEND
  5
2038
  8
TITLE_BLOCK
  0
TEXT
  5
BE7
  8
TITLE_BLOCK
 10
738.357599999999934
 20
62.0303999999999789
 30
0.0
 40
1.5600000000000001
  1
圖紙
  7
ROMAN
  0
POLYLINE
  5
BE8
  8
TITLE_BLOCK
 66
     1
 10
0.0
 20
0.0
 30
0.0
 40
0.6000000000000001
 41
0.6000000000000001
  0
VERTEX
  5
2039
  8
TITLE_BLOCK
 10
735.0
 20
30.0
 30
0.0
  0
VERTEX
  5
203A
  8
TITLE_BLOCK
 10
735.0
 20
66.0
 30
0.0
  0
SEQEND
  5
203B
  8
TITLE_BLOCK
  0
TEXT
  5
BE9
  8
TITLE_BLOCK
 10
690.7296000000000049
 20
50.3736000000000104
 30
0.0
 40
1.5600000000000001
  1
日期
  7
ROMAN
  0
TEXT
  5
BEA
  8
TITLE_BLOCK
 10
690.7296000000000049
 20
62.0303999999999789
 30
0.0
 40
1.5600000000000001
  1
專案
  7
ROMAN
  0
TEXT
  5
BEB
  8
TITLE_BLOCK
 10
690.7296000000000049
 20
38.7168000000000134
 30
0.0
 40
1.5600000000000001
  1
比例
  7
ROMAN
  0
POLYLINE
  5
BEC
  8
TITLE_BLOCK
 66
     1
 10
0.0
 20
0.0
 30
0.0
 70
     1
 40
1.2
 41
1.2
  0
VERTEX
  5
203C
  8
TITLE_BLOCK
 10
693.0
 20
30.0
 30
0.0
  0
VERTEX
  5
203D
  8
TITLE_BLOCK
 10
765.0
 20
30.0
 30
0.0
 42
0.4142135623730951
  0
VERTEX
  5
203E
  8
TITLE_BLOCK
 10
771.0
 20
36.0
 30
0.0
  0
VERTEX
  5
203F
  8
TITLE_BLOCK
 10
771.0
 20
60.0
 30
0.0
 42
0.4142135623730951
  0
VERTEX
  5
2040
  8
TITLE_BLOCK
 10
765.0
 20
66.0
 30
0.0
  0
VERTEX
  5
2041
  8
TITLE_BLOCK
 10
693.0
 20
66.0
 30
0.0
 42
0.4142135623730951
  0
VERTEX
  5
2042
  8
TITLE_BLOCK
 10
687.0
 20
60.0
 30
0.0
  0
VERTEX
  5
2043
  8
TITLE_BLOCK
 10
687.0
 20
36.0
 30
0.0
 42
0.4142135623730951
  0
SEQEND
  5
2044
  8
TITLE_BLOCK
  0
POLYLINE
  5
BED
  8
TITLE_BLOCK
 66
     1
 10
0.0
 20
0.0
 30
0.0
 40
0.6000000000000001
 41
0.6000000000000001
  0
VERTEX
  5
2045
  8
TITLE_BLOCK
 10
687.0
 20
54.0
 30
0.0
  0
VERTEX
  5
2046
  8
TITLE_BLOCK
 10
735.0
 20
54.0
 30
0.0
  0
SEQEND
  5
2047
  8
TITLE_BLOCK
  0
POLYLINE
  5
BEE
  8
TITLE_BLOCK
 66
     1
 10
0.0
 20
0.0
 30
0.0
 40
0.6000000000000001
 41
0.6000000000000001
  0
VERTEX
  5
2048
  8
TITLE_BLOCK
 10
687.0
 20
42.0
 30
0.0
  0
VERTEX
  5
2049
  8
TITLE_BLOCK
 10
735.0
 20
42.0
 30
0.0
  0
SEQEND
  5
204A
  8
TITLE_BLOCK
  0
LINE
  5
BEF
  8
TITLE_BLOCK
 10
801.0
 20
0.0
 30
0.0
 11
801.0
 21
567.0
 31
0.0
  0
POLYLINE
  5
BF0
  8
TITLE_BLOCK
 66
     1
 10
0.0
 20
0.0
 30
0.0
 70
     1
 40
1.2
 41
1.2
  0
VERTEX
  5
204B
  8
TITLE_BLOCK
 10
693.0
 20
72.0
 30
0.0
  0
VERTEX
  5
204C
  8
TITLE_BLOCK
 10
765.0
 20
72.0
 30
0.0
 42
0.4142135623730951
  0
VERTEX
  5
204D
  8
TITLE_BLOCK
 10
771.0
 20
78.0
 30
0.0
  0
VERTEX
  5
204E
  8
TITLE_BLOCK
 10
771.0
 20
114.0
 30
0.0
 42
0.4142135623730951
  0
VERTEX
  5
204F
  8
TITLE_BLOCK
 10
765.0
 20
120.0
 30
0.0
  0
VERTEX
  5
2050
  8
TITLE_BLOCK
 10
693.0
 20
120.0
 30
0.0
 42
0.4142135623730951
  0
VERTEX
  5
2051
  8
TITLE_BLOCK
 10
687.0
 20
114.0
 30
0.0
  0
VERTEX
  5
2052
  8
TITLE_BLOCK
 10
687.0
 20
78.0
 30
0.0
 42
0.4142135623730951
  0
SEQEND
  5
2053
  8
TITLE_BLOCK
  0
LINE
  5
BF1
  8
TITLE_BLOCK
 10
0.0
 20
567.0
 30
0.0
 11
0.0
 21
0.0
 31
0.0
  0
LINE
  5
BF2
  8
TITLE_BLOCK
 10
0.0
 20
0.0
 30
0.0
 11
801.0
 21
0.0
 31
0.0
  0
LINE
  5
BF3
  8
TITLE_BLOCK
 10
801.0
 20
567.0
 30
0.0
 11
0.0
 21
567.0
 31
0.0
  0
ATTDEF
  5
BF4
  8
TITLE_BLOCK
 62
     0
 10
690.7951144351782204
 20
107.2583813769444987
 30
0.0
 40
4.0
  1
值
  7
ROMAN
 11
690.7951144351782204
 21
105.9250480436111985
 31
0.0
  3
輸入專案名稱
  2
PROJECTNAME
 70
     8
 74
     1
  0
ATTDEF
  5
BF9
  8
TITLE_BLOCK
 62
     0
 10
690.7951144351782204
 20
100.7821909007541024
 30
0.0
 40
4.0
  1
值
  7
ROMAN
 11
690.7951144351782204
 21
99.4488575674207596
 31
0.0
  3
輸入專案地址的第一行
  2
PROJECTADDRESS1
 70
     8
 74
     1
  0
ATTDEF
  5
BFE
  8
TITLE_BLOCK
 62
     0
 10
690.7951144351782204
 20
94.3060004245636065
 30
0.0
 40
4.0
  1
值
  7
ROMAN
 11
690.7951144351782204
 21
92.9726670912302637
 31
0.0
  3
輸入專案地址的第二行
  2
PROJECTADDRESS2
 70
     8
 74
     1
  0
ATTDEF
  5
C03
  8
TITLE_BLOCK
 62
     0
 10
690.7951144351782204
 20
87.8298099483731249
 30
0.0
 40
4.0
  1
值
  7
ROMAN
 11
690.7951144351782204
 21
86.4964766150397963
 31
0.0
  3
輸入專案地址的第三行
  2
PROJECTADDRESS3
 70
     8
 74
     1
  0
ATTDEF
  5
C08
  8
TITLE_BLOCK
 62
     0
 10
703.380952380952408
 20
56.5
 30
0.0
 40
4.0
  1
值
  7
ROMAN
 72
     1
 11
711.0
 21
58.5
 31
0.0
  3
輸入專案名稱
  2
PROJECTNAME
 70
     8
 74
     2
  0
ATTDEF
  5
C0D
  8
TITLE_BLOCK
 62
     0
 10
693.8571428571427759
 20
44.5
 30
0.0
 40
4.0
  1
29.04.2022
  7
ROMAN
 72
     1
 11
711.0
 21
46.5
 31
0.0
  3
輸入日期
  2
DATE
 70
     8
 74
     2
  0
ATTDEF
  5
C12
  8
TITLE_BLOCK
 62
     0
 10
697.3809523809522943
 20
32.5
 30
0.0
 40
4.0
  1
如註釋
  7
ROMAN
 72
     1
 11
711.0
 21
34.5
 31
0.0
  3
輸入比例
  2
SCALE
 70
     0
 74
     2
  0
ATTDEF
  5
C13
  8
TITLE_BLOCK
 62
     0
 10
745.8571428571428896
 20
43.0
 30
0.0
 40
10.0
  1
00
 41
0.75
  7
ROMAN
 72
     1
 11
753.0
 21
48.0
 31
0.0
  3
輸入圖紙號碼
  2
SHEETNO
 70
     8
 74
     2
  0
ENDBLK
  5
BD6
  8
0
  0
BLOCK
  8
0
  2
*U1
 70
     3
 10
0.0
 20
0.0
 30
0.0
  3
*U1
  1

  0
CIRCLE
  5
F48
  8
0
 10
11.4599645437260698
 20
-15.8317331059681692
 30
0.0
 40
8.0
1001
ACDBBLOCKREPETAG
1070
     1
1071
        0
1005
F48
  0
LINE
  5
F49
  8
0
 10
19.4599645437260698
 20
-15.8317331059681692
 30
0.0
 11
74.9599645437260733
 21
-15.8317331059681603
 31
0.0
1001
ACDBBLOCKREPETAG
1070
     1
1071
        1
1005
F49
  0
ATTDEF
  5
F4A
  8
0
 62
     7
 10
-6.0638449800834477
 20
-17.8317331059681692
 30
0.0
 40
4.0
  1
視圖號碼
 72
     1
 11
11.4599645437260698
 21
-15.8317331059681692
 31
0.0
  3
視圖號碼
  2
VIEWNUMBER
 70
     8
 74
     2
1001
ACDBBLOCKREPETAG
1070
     1
1071
        2
1005
F4A
  0
ATTDEF
  5
F4F
  8
0
 62
     7
 10
24.0419769888612791
 20
-13.8317331059681692
 30
0.0
 40
6.0
  1
視圖標題
 11
24.0419769888612791
 21
-15.8317331059681692
 31
0.0
  3
視圖標題
  2
VIEWTITLE
 70
     8
 74
     1
1001
ACDBBLOCKREPETAG
1070
     1
1071
        3
1005
F4F
  0
ATTDEF
  5
F54
  8
0
 62
     7
 10
24.0419769888612791
 20
-20.1908064026599696
 30
0.0
 40
2.5
  1
視埠比例
 11
24.0419769888612791
 21
-17.6908064026599696
 31
0.0
  3
視埠比例
  2
VIEWPORTSCALE
 70
     8
 74
     3
1001
ACDBBLOCKREPETAG
1070
     1
1071
        4
1005
F54
  0
ENDBLK
  5
F59
  8
0
  0
BLOCK
  8
0
  2
*U2
 70
     3
 10
0.0
 20
0.0
 30
0.0
  3
*U2
  1

  0
LINE
  5
10C7
  8
0
 10
-8.0
 20
0.0
 30
0.0
 11
8.0
 21
0.0
 31
0.0
1001
ACDBBLOCKREPETAG
1070
     1
1071
        0
1005
10C7
  0
ATTDEF
  5
10C8
  8
0
 62
     7
 10
-17.5238095238095184
 20
1.333333333333329
 30
0.0
 40
4.0
  1
視圖號碼
 72
     1
 11
0.0
 21
-0.0000000000000036
 31
0.0
  3
視圖號碼
  2
VIEWNUMBER
 70
     8
 74
     1
1001
ACDBBLOCKREPETAG
1070
     1
1071
        1
1005
10C8
  0
ATTDEF
  5
10CD
  8
0
 62
     7
 10
-19.5238095238095184
 20
-5.3195141984913361
 30
0.0
 40
4.0
  1
圖紙號碼
 72
     1
 11
0.0
 21
-1.3195141984913361
 31
0.0
  3
圖紙號碼
  2
SHEETNUMBER
 70
     8
 74
     3
1001
ACDBBLOCKREPETAG
1070
     1
1071
        2
1005
10CD
  0
CIRCLE
  5
10D2
  8
0
 10
0.0
 20
0.0
 30
0.0
 40
8.0
1001
ACDBBLOCKREPETAG
1070
     1
1071
        6
1005
10D2
  0
POLYLINE
  5
10D3
  8
0
 66
     1
 10
0.0
 20
0.0
 30
0.0
 70
     1
1001
ACDBBLOCKREPETAG
1070
     1
1071
        4
1005
10D3
  0
VERTEX
  5
2056
  8
0
 10
5.656854249492369
 20
-5.656854249492369
 30
0.0
  0
VERTEX
  5
2057
  8
0
 10
11.3137084989847896
 20
0.0
 30
0.0
  0
VERTEX
  5
2058
  8
0
 10
5.656854249492425
 20
5.656854249492369
 30
0.0
 42
-0.4142135623730951
  0
SEQEND
  5
2059
  8
0
  0
INSERT
  5
10D4
  8
0
  6
CONTINUOUS
  2
*U9
 10
0.0
 20
0.0
 30
0.0
1001
ACDBBLOCKREPETAG
1070
     1
1071
        8
1005
10D4
1001
ACAD
1002
{
1000
R14_HATCH_DATA
1000
10D4
1011
1.0
1021
0.0
1031
0.0
1021
0.0
1031
0.0
1011
0.0
1021
0.0
1031
0.0
1021
1.0
1031
0.0
1011
0.0
1021
0.0
1031
0.0
1021
0.0
1031
1.0
1040
0.0
1010
0.0
1020
0.0
1030
1.0
1000
SOLID
1070
     1
1070
     1
1071
        1
1071
        7
1070
     1
1070
     1
1071
        3
1040
5.6568542494923681
1040
-5.656854249492369
1040
0.0
1040
11.3137084989847896
1040
0.0
1040
0.0
1040
5.656854249492425
1040
5.656854249492369
1040
-0.4142135623730951
1071
        1
1005
10D3
1070
     0
1070
     1
1040
0.066098001028821
1071
        1
1040
9.1444120038971732
1040
0.3097830622343736
1040
0.0
1002
}
  0
POLYLINE
  5
10D5
  8
0
 66
     1
 10
0.0
 20
0.0
 30
0.0
 70
     1
1001
ACDBBLOCKREPETAG
1070
     1
1071
        3
1005
10D5
  0
VERTEX
  5
2083
  8
0
 10
0.0
 20
11.3137084989847896
 30
0.0
  0
VERTEX
  5
2084
  8
0
 10
0.0
 20
8.0
 30
0.0
 42
-0.198912367379658
  0
VERTEX
  5
2085
  8
0
 10
5.656854249492369
 20
5.656854249492369
 30
0.0
  0
SEQEND
  5
2086
  8
0
  0
POLYLINE
  5
10D6
  8
0
 66
     1
 10
0.0
 20
0.0
 30
0.0
 70
     1
1001
ACDBBLOCKREPETAG
1070
     1
1071
        5
1005
10D6
  0
VERTEX
  5
2087
  8
0
 10
0.0
 20
-11.3137084989847896
 30
0.0
  0
VERTEX
  5
2088
  8
0
 10
0.0
 20
-8.0
 30
0.0
 42
0.198912367379658
  0
VERTEX
  5
2089
  8
0
 10
5.656854249492369
 20
-5.656854249492369
 30
0.0
  0
SEQEND
  5
208A
  8
0
  0
INSERT
  5
10D7
  8
0
  6
CONTINUOUS
  2
*U10
 10
0.0
 20
0.0
 30
0.0
1001
ACDBBLOCKREPETAG
1070
     1
1071
        7
1005
10D7
1001
ACAD
1002
{
1000
R14_HATCH_DATA
1000
10D7
1011
1.0
1021
0.0
1031
0.0
1021
0.0
1031
0.0
1011
0.0
1021
0.0
1031
0.0
1021
1.0
1031
0.0
1011
0.0
1021
0.0
1031
0.0
1021
0.0
1031
1.0
1040
0.0
1010
0.0
1020
0.0
1030
1.0
1000
SOLID
1070
     1
1070
     1
1071
        2
1071
        7
1070
     1
1070
     1
1071
        3
1040
0.0
1040
11.3137084989847896
1040
0.0
1040
0.0
1040
8.0
1040
-0.1989123673796587
1040
5.656854249492385
1040
5.656854249492353
1040
0.0
1071
        1
1005
10D5
1071
        7
1070
     1
1070
     1
1071
        3
1040
0.0
1040
-8.0
1040
0.0
1040
0.0
1040
-11.3137084989847896
1040
0.0
1040
5.656854249492369
1040
-5.656854249492369
1040
-0.198912367379658
1071
        1
1005
10D6
1070
     0
1070
     1
1040
0.066098001028821
1071
        2
1040
1.274844075415273
1040
9.1669151979095318
1040
0.0
1040
1.0103205693329751
1040
-8.8117412199604814
1040
0.0
1002
}
  0
ENDBLK
  5
10D8
  8
0
  0
BLOCK
  8
0
  2
*U6
 70
     1
 10
0.0
 20
0.0
 30
0.0
  3
*U6
  1

  0
TEXT
  5
1FEE
  8
TITLE_BLOCK
 62
     0
 10
-1.199999999999988
 20
-0.7619047619047619
 30
0.0
 40
4.0
  1
----
 50
90.0
  7
ROMAN
  0
ENDBLK
  5
1FF0
  8
0
  0
BLOCK
  8
0
  2
*U7
 70
     1
 10
0.0
 20
0.0
 30
0.0
  3
*U7
  1

  0
TEXT
  5
1FF2
  8
TITLE_BLOCK
 62
     0
 10
-1.200000000000002
 20
70.8571428571428612
 30
0.0
 40
4.0
  1
14.10.2003
 50
90.0
  7
ROMAN
  0
ENDBLK
  5
1FF4
  8
0
  0
BLOCK
  8
0
  2
*U8
 70
     1
 10
0.0
 20
0.0
 30
0.0
  3
*U8
  1

  0
TEXT
  5
1FF6
  8
TITLE_BLOCK
 62
     0
 10
-2.5333333333333359
 20
143.2380952380952124
 30
0.0
 40
4.0
  1
BMC 70020-Case-PCB_Edge.dxf
 50
90.0
  7
ROMAN
  0
ENDBLK
  5
1FF8
  8
0
  0
BLOCK
  8
0
  2
*U9
 70
     1
 10
0.0
 20
0.0
 30
0.0
  3
*U9
  1

  0
SOLID
  5
205B
  8
0
  6
CONTINUOUS
 10
-5.6568542494924232
 20
5.6568542494923726
 30
0.0
 11
-6.7250970081764372
 21
4.5886114908083586
 31
0.0
 12
-6.5532163543119708
 22
4.5886114908083586
 32
0.0
 13
-6.5532163543119708
 23
4.5886114908083586
 33
0.0
210
0.0
220
0.0
230
-1.0
  0
SOLID
  5
205C
  8
0
  6
CONTINUOUS
 10
-6.5532163543119708
 20
4.5886114908083586
 30
0.0
 11
-7.9327624050592114
 21
3.380946093925584
 31
0.0
 12
-7.2504622962932297
 22
3.380946093925584
 32
0.0
 13
-7.2504622962932297
 23
3.380946093925584
 33
0.0
210
0.0
220
0.0
230
-1.0
  0
SOLID
  5
205D
  8
0
  6
CONTINUOUS
 10
-6.5532163543119708
 20
4.5886114908083586
 30
0.0
 11
-6.7250970081764372
 21
4.5886114908083586
 31
0.0
 12
-7.9327624050592114
 22
3.380946093925584
 32
0.0
 13
-7.9327624050592114
 23
3.380946093925584
 33
0.0
210
0.0
220
0.0
230
-1.0
  0
SOLID
  5
205E
  8
0
  6
CONTINUOUS
 10
-7.2504622962932297
 20
3.380946093925584
 30
0.0
 11
-9.2431561381646414
 21
2.0705523608201539
 31
0.0
 12
-7.7274066103125696
 22
2.0705523608201539
 32
0.0
 13
-7.7274066103125696
 23
2.0705523608201539
 33
0.0
210
0.0
220
0.0
230
-1.0
  0
SOLID
  5
205F
  8
0
  6
CONTINUOUS
 10
-7.2504622962932297
 20
3.380946093925584
 30
0.0
 11
-7.9327624050592114
 21
3.380946093925584
 31
0.0
 12
-9.2431561381646414
 22
2.0705523608201539
 32
0.0
 13
-9.2431561381646414
 23
2.0705523608201539
 33
0.0
210
0.0
220
0.0
230
-1.0
  0
SOLID
  5
2060
  8
0
  6
CONTINUOUS
 10
-7.7274066103125696
 20
2.0705523608201539
 30
0.0
 11
-10.6164625570035405
 21
0.6972459419812552
 31
0.0
 12
-7.9695575847339821
 22
0.6972459419812552
 32
0.0
 13
-7.9695575847339821
 23
0.6972459419812552
 33
0.0
210
0.0
220
0.0
230
-1.0
  0
SOLID
  5
2061
  8
0
  6
CONTINUOUS
 10
-7.7274066103125696
 20
2.0705523608201539
 30
0.0
 11
-9.2431561381646414
 21
2.0705523608201539
 31
0.0
 12
-10.6164625570035405
 22
0.6972459419812552
 32
0.0
 13
-10.6164625570035405
 23
0.6972459419812552
 33
0.0
210
0.0
220
0.0
230
-1.0
  0
SOLID
  5
2062
  8
0
  6
CONTINUOUS
 10
-7.9695575847339821
 20
0.6972459419812552
 30
0.0
 11
-11.3137084989847896
 21
0.0
 31
0.0
 12
-7.9695575847339777
 22
0.0
 32
0.0
 13
-7.9695575847339777
 23
0.0
 33
0.0
210
0.0
220
0.0
230
-1.0
  0
SOLID
  5
2063
  8
0
  6
CONTINUOUS
 10
-7.9695575847339821
 20
0.6972459419812552
 30
0.0
 11
-10.6164625570035405
 21
0.6972459419812552
 31
0.0
 12
-11.3137084989847896
 22
0.0
 32
0.0
 13
-11.3137084989847896
 23
0.0
 33
0.0
210
0.0
220
0.0
230
-1.0
  0
SOLID
  5
2064
  8
0
  6
CONTINUOUS
 10
-7.9695575847339777
 20
0.0
 30
0.0
 11
-10.6164625570035103
 21
-0.6972459419812738
 31
0.0
 12
-7.969557584733975
 22
-0.6972459419812738
 32
0.0
 13
-7.969557584733975
 23
-0.6972459419812738
 33
0.0
210
0.0
220
0.0
230
-1.0
  0
SOLID
  5
2065
  8
0
  6
CONTINUOUS
 10
-7.9695575847339777
 20
0.0
 30
0.0
 11
-11.3137084989847896
 21
0.0
 31
0.0
 12
-10.6164625570035103
 22
-0.6972459419812738
 32
0.0
 13
-10.6164625570035103
 23
-0.6972459419812738
 33
0.0
210
0.0
220
0.0
230
-1.0
  0
SOLID
  5
2066
  8
0
  6
CONTINUOUS
 10
-7.969557584733975
 20
-0.6972459419812738
 30
0.0
 11
-9.2431561381646024
 21
-2.0705523608201708
 31
0.0
 12
-7.7274066103125501
 22
-2.0705523608201708
 32
0.0
 13
-7.7274066103125501
 23
-2.0705523608201708
 33
0.0
210
0.0
220
0.0
230
-1.0
  0
SOLID
  5
2067
  8
0
  6
CONTINUOUS
 10
-7.969557584733975
 20
-0.6972459419812738
 30
0.0
 11
-10.6164625570035103
 21
-0.6972459419812738
 31
0.0
 12
-9.2431561381646024
 22
-2.0705523608201708
 32
0.0
 13
-9.2431561381646024
 23
-2.0705523608201708
 33
0.0
210
0.0
220
0.0
230
-1.0
  0
SOLID
  5
2068
  8
0
  6
CONTINUOUS
 10
-7.7274066103125501
 20
-2.0705523608201708
 30
0.0
 11
-7.9327624050591652
 21
-3.3809460939255951
 31
0.0
 12
-7.2504622962931968
 22
-3.3809460939255951
 32
0.0
 13
-7.2504622962931968
 23
-3.3809460939255951
 33
0.0
210
0.0
220
0.0
230
-1.0
  0
SOLID
  5
2069
  8
0
  6
CONTINUOUS
 10
-7.7274066103125501
 20
-2.0705523608201708
 30
0.0
 11
-9.2431561381646024
 21
-2.0705523608201708
 31
0.0
 12
-7.9327624050591652
 22
-3.3809460939255951
 32
0.0
 13
-7.9327624050591652
 23
-3.3809460939255951
 33
0.0
210
0.0
220
0.0
230
-1.0
  0
SOLID
  5
206A
  8
0
  6
CONTINUOUS
 10
-6.5532163543119273
 20
-4.5886114908083631
 30
0.0
 11
-6.7250970081763848
 21
-4.5886114908083631
 31
0.0
 12
-5.6568542494923681
 22
-5.656854249492369
 32
0.0
 13
-5.6568542494923681
 23
-5.656854249492369
 33
0.0
210
0.0
220
0.0
230
-1.0
  0
SOLID
  5
206B
  8
0
  6
CONTINUOUS
 10
-7.2504622962931968
 20
-3.3809460939255951
 30
0.0
 11
-6.7250970081763848
 21
-4.5886114908083631
 31
0.0
 12
-6.5532163543119273
 22
-4.5886114908083631
 32
0.0
 13
-6.5532163543119273
 23
-4.5886114908083631
 33
0.0
210
0.0
220
0.0
230
-1.0
  0
SOLID
  5
206C
  8
0
  6
CONTINUOUS
 10
-7.2504622962931968
 20
-3.3809460939255951
 30
0.0
 11
-7.9327624050591652
 21
-3.3809460939255951
 31
0.0
 12
-6.7250970081763848
 22
-4.5886114908083631
 32
0.0
 13
-6.7250970081763848
 23
-4.5886114908083631
 33
0.0
210
0.0
220
0.0
230
-1.0
  0
LINE
  5
206D
  8
0
  6
CONTINUOUS
 10
5.6568542494924232
 20
5.6568542494923726
 30
0.0
 11
6.7250970081764372
 21
4.5886114908083586
 31
0.0
  0
LINE
  5
206E
  8
0
  6
CONTINUOUS
 10
6.5532163543119708
 20
4.5886114908083586
 30
0.0
 11
5.6568542494924232
 21
5.6568542494923726
 31
0.0
  0
LINE
  5
206F
  8
0
  6
CONTINUOUS
 10
7.2504622962932297
 20
3.380946093925584
 30
0.0
 11
6.5532163543119708
 21
4.5886114908083586
 31
0.0
  0
LINE
  5
2070
  8
0
  6
CONTINUOUS
 10
6.7250970081764372
 20
4.5886114908083586
 30
0.0
 11
7.9327624050592114
 21
3.380946093925584
 31
0.0
  0
LINE
  5
2071
  8
0
  6
CONTINUOUS
 10
7.7274066103125696
 20
2.0705523608201539
 30
0.0
 11
7.2504622962932297
 21
3.380946093925584
 31
0.0
  0
LINE
  5
2072
  8
0
  6
CONTINUOUS
 10
7.9327624050592114
 20
3.380946093925584
 30
0.0
 11
9.2431561381646414
 21
2.0705523608201539
 31
0.0
  0
LINE
  5
2073
  8
0
  6
CONTINUOUS
 10
7.9695575847339821
 20
0.6972459419812552
 30
0.0
 11
7.7274066103125696
 21
2.0705523608201539
 31
0.0
  0
LINE
  5
2074
  8
0
  6
CONTINUOUS
 10
9.2431561381646414
 20
2.0705523608201539
 30
0.0
 11
10.6164625570035405
 21
0.6972459419812552
 31
0.0
  0
LINE
  5
2075
  8
0
  6
CONTINUOUS
 10
7.9695575847339777
 20
0.0
 30
0.0
 11
7.9695575847339821
 21
0.6972459419812552
 31
0.0
  0
LINE
  5
2076
  8
0
  6
CONTINUOUS
 10
10.6164625570035405
 20
0.6972459419812552
 30
0.0
 11
11.3137084989847896
 21
0.0
 31
0.0
  0
LINE
  5
2077
  8
0
  6
CONTINUOUS
 10
7.969557584733975
 20
-0.6972459419812738
 30
0.0
 11
7.9695575847339777
 21
0.0
 31
0.0
  0
LINE
  5
2078
  8
0
  6
CONTINUOUS
 10
11.3137084989847896
 20
0.0
 30
0.0
 11
10.6164625570035103
 21
-0.6972459419812738
 31
0.0
  0
LINE
  5
2079
  8
0
  6
CONTINUOUS
 10
7.7274066103125501
 20
-2.0705523608201708
 30
0.0
 11
7.969557584733975
 21
-0.6972459419812738
 31
0.0
  0
LINE
  5
207A
  8
0
  6
CONTINUOUS
 10
10.6164625570035103
 20
-0.6972459419812738
 30
0.0
 11
9.2431561381646024
 21
-2.0705523608201708
 31
0.0
  0
LINE
  5
207B
  8
0
  6
CONTINUOUS
 10
7.2504622962931968
 20
-3.3809460939255951
 30
0.0
 11
7.7274066103125501
 21
-2.0705523608201708
 31
0.0
  0
LINE
  5
207C
  8
0
  6
CONTINUOUS
 10
9.2431561381646024
 20
-2.0705523608201708
 30
0.0
 11
7.9327624050591652
 21
-3.3809460939255951
 31
0.0
  0
LINE
  5
207D
  8
0
  6
CONTINUOUS
 10
6.7250970081763848
 20
-4.5886114908083631
 30
0.0
 11
5.6568542494923681
 21
-5.656854249492369
 31
0.0
  0
LINE
  5
207E
  8
0
  6
CONTINUOUS
 10
5.6568542494923681
 20
-5.656854249492369
 30
0.0
 11
6.5532163543119273
 21
-4.5886114908083631
 31
0.0
  0
LINE
  5
207F
  8
0
  6
CONTINUOUS
 10
6.5532163543119273
 20
-4.5886114908083631
 30
0.0
 11
7.2504622962931968
 21
-3.3809460939255951
 31
0.0
  0
LINE
  5
2080
  8
0
  6
CONTINUOUS
 10
7.9327624050591652
 20
-3.3809460939255951
 30
0.0
 11
6.7250970081763848
 21
-4.5886114908083631
 31
0.0
  0
ENDBLK
  5
2082
  8
0
  0
BLOCK
  8
0
  2
*U10
 70
     1
 10
0.0
 20
0.0
 30
0.0
  3
*U10
  1

  0
SOLID
  5
208C
  8
0
  6
CONTINUOUS
 10
0.0
 20
11.3137084989847896
 30
0.0
 11
-3.3137084989847612
 21
8.0
 31
0.0
 12
0.0000000000000055
 22
8.0
 32
0.0
 13
0.0000000000000055
 23
8.0
 33
0.0
210
0.0
220
0.0
230
-1.0
  0
SOLID
  5
208D
  8
0
  6
CONTINUOUS
 10
0.0000000000000055
 20
8.0
 30
0.0
 11
-3.4122017742236599
 21
7.9015067247610986
 31
0.0
 12
-1.251475720321845
 22
7.9015067247610986
 32
0.0
 13
-1.251475720321845
 23
7.9015067247610986
 33
0.0
210
0.0
220
0.0
230
-1.0
  0
SOLID
  5
208E
  8
0
  6
CONTINUOUS
 10
0.0000000000000055
 20
8.0
 30
0.0
 11
-3.3137084989847612
 21
8.0
 31
0.0
 12
-3.4122017742236599
 22
7.9015067247610986
 32
0.0
 13
-3.4122017742236599
 23
7.9015067247610986
 33
0.0
210
0.0
220
0.0
230
-1.0
  0
SOLID
  5
208F
  8
0
  6
CONTINUOUS
 10
-1.251475720321845
 20
7.9015067247610986
 30
0.0
 11
-3.7052563686235351
 21
7.608452130361222
 31
0.0
 12
-2.4721359549995809
 22
7.608452130361222
 32
0.0
 13
-2.4721359549995809
 23
7.608452130361222
 33
0.0
210
0.0
220
0.0
230
-1.0
  0
SOLID
  5
2090
  8
0
  6
CONTINUOUS
 10
-1.251475720321845
 20
7.9015067247610986
 30
0.0
 11
-3.4122017742236599
 21
7.9015067247610986
 31
0.0
 12
-3.7052563686235351
 22
7.608452130361222
 32
0.0
 13
-3.7052563686235351
 23
7.608452130361222
 33
0.0
210
0.0
220
0.0
230
-1.0
  0
SOLID
  5
2091
  8
0
  6
CONTINUOUS
 10
-2.4721359549995809
 20
7.608452130361222
 30
0.0
 11
-4.1856563054778206
 21
7.1280521935069308
 31
0.0
 12
-3.6319239979163789
 22
7.1280521935069308
 32
0.0
 13
-3.6319239979163789
 23
7.1280521935069308
 33
0.0
210
0.0
220
0.0
230
-1.0
  0
SOLID
  5
2092
  8
0
  6
CONTINUOUS
 10
-2.4721359549995809
 20
7.608452130361222
 30
0.0
 11
-3.7052563686235351
 21
7.608452130361222
 31
0.0
 12
-4.1856563054778206
 22
7.1280521935069308
 32
0.0
 13
-4.1856563054778206
 23
7.1280521935069308
 33
0.0
210
0.0
220
0.0
230
-1.0
  0
SOLID
  5
2093
  8
0
  6
CONTINUOUS
 10
-4.7022820183397922
 20
6.472135954999561
 30
0.0
 11
-4.8415725439851851
 21
6.472135954999561
 31
0.0
 12
-5.656854249492385
 22
5.656854249492353
 32
0.0
 13
-5.656854249492385
 23
5.656854249492353
 33
0.0
210
0.0
220
0.0
230
-1.0
  0
SOLID
  5
2094
  8
0
  6
CONTINUOUS
 10
-3.6319239979163789
 20
7.1280521935069308
 30
0.0
 11
-4.8415725439851851
 21
6.472135954999561
 31
0.0
 12
-4.7022820183397922
 22
6.472135954999561
 32
0.0
 13
-4.7022820183397922
 23
6.472135954999561
 33
0.0
210
0.0
220
0.0
230
-1.0
  0
SOLID
  5
2095
  8
0
  6
CONTINUOUS
 10
-3.6319239979163789
 20
7.1280521935069308
 30
0.0
 11
-4.1856563054778206
 21
7.1280521935069308
 31
0.0
 12
-4.8415725439851851
 22
6.472135954999561
 32
0.0
 13
-4.8415725439851851
 23
6.472135954999561
 33
0.0
210
0.0
220
0.0
230
-1.0
  0
SOLID
  5
2096
  8
0
  6
CONTINUOUS
 10
-5.6568542494923699
 20
-5.6568542494923681
 30
0.0
 11
-4.8415725439851771
 21
-6.472135954999569
 31
0.0
 12
-4.7022820183397771
 22
-6.472135954999569
 32
0.0
 13
-4.7022820183397771
 23
-6.472135954999569
 33
0.0
210
0.0
220
0.0
230
-1.0
  0
SOLID
  5
2097
  8
0
  6
CONTINUOUS
 10
-4.7022820183397771
 20
-6.472135954999569
 30
0.0
 11
-4.1856563054778171
 21
-7.1280521935069361
 31
0.0
 12
-3.6319239979163691
 22
-7.1280521935069361
 32
0.0
 13
-3.6319239979163691
 23
-7.1280521935069361
 33
0.0
210
0.0
220
0.0
230
-1.0
  0
SOLID
  5
2098
  8
0
  6
CONTINUOUS
 10
-4.7022820183397771
 20
-6.472135954999569
 30
0.0
 11
-4.8415725439851771
 21
-6.472135954999569
 31
0.0
 12
-4.1856563054778171
 22
-7.1280521935069361
 32
0.0
 13
-4.1856563054778171
 23
-7.1280521935069361
 33
0.0
210
0.0
220
0.0
230
-1.0
  0
SOLID
  5
2099
  8
0
  6
CONTINUOUS
 10
-3.6319239979163691
 20
-7.1280521935069361
 30
0.0
 11
-3.7052563686235329
 21
-7.6084521303612238
 31
0.0
 12
-2.4721359549995738
 22
-7.6084521303612238
 32
0.0
 13
-2.4721359549995738
 23
-7.6084521303612238
 33
0.0
210
0.0
220
0.0
230
-1.0
  0
SOLID
  5
209A
  8
0
  6
CONTINUOUS
 10
-3.6319239979163691
 20
-7.1280521935069361
 30
0.0
 11
-4.1856563054778171
 21
-7.1280521935069361
 31
0.0
 12
-3.7052563686235329
 22
-7.6084521303612238
 32
0.0
 13
-3.7052563686235329
 23
-7.6084521303612238
 33
0.0
210
0.0
220
0.0
230
-1.0
  0
SOLID
  5
209B
  8
0
  6
CONTINUOUS
 10
-2.4721359549995738
 20
-7.6084521303612238
 30
0.0
 11
-3.4122017742236612
 21
-7.9015067247610986
 31
0.0
 12
-1.2514757203218421
 22
-7.9015067247610986
 32
0.0
 13
-1.2514757203218421
 23
-7.9015067247610986
 33
0.0
210
0.0
220
0.0
230
-1.0
  0
SOLID
  5
209C
  8
0
  6
CONTINUOUS
 10
-2.4721359549995738
 20
-7.6084521303612238
 30
0.0
 11
-3.7052563686235329
 21
-7.6084521303612238
 31
0.0
 12
-3.4122017742236612
 22
-7.9015067247610986
 32
0.0
 13
-3.4122017742236612
 23
-7.9015067247610986
 33
0.0
210
0.0
220
0.0
230
-1.0
  0
SOLID
  5
209D
  8
0
  6
CONTINUOUS
 10
0.0
 20
-8.0
 30
0.0
 11
-3.3137084989847621
 21
-8.0
 31
0.0
 12
0.0
 22
-11.3137084989847896
 32
0.0
 13
0.0
 23
-11.3137084989847896
 33
0.0
210
0.0
220
0.0
230
-1.0
  0
SOLID
  5
209E
  8
0
  6
CONTINUOUS
 10
-1.2514757203218421
 20
-7.9015067247610986
 30
0.0
 11
-3.3137084989847621
 21
-8.0
 31
0.0
 12
0.0
 22
-8.0
 32
0.0
 13
0.0
 23
-8.0
 33
0.0
210
0.0
220
0.0
230
-1.0
  0
SOLID
  5
209F
  8
0
  6
CONTINUOUS
 10
-1.2514757203218421
 20
-7.9015067247610986
 30
0.0
 11
-3.4122017742236612
 21
-7.9015067247610986
 31
0.0
 12
-3.3137084989847621
 22
-8.0
 32
0.0
 13
-3.3137084989847621
 23
-8.0
 33
0.0
210
0.0
220
0.0
230
-1.0
  0
LINE
  5
20A0
  8
0
  6
CONTINUOUS
 10
0.0
 20
11.3137084989847896
 30
0.0
 11
3.3137084989847612
 21
8.0
 31
0.0
  0
LINE
  5
20A1
  8
0
  6
CONTINUOUS
 10
-0.0000000000000055
 20
8.0
 30
0.0
 11
0.0
 21
11.3137084989847896
 31
0.0
  0
LINE
  5
20A2
  8
0
  6
CONTINUOUS
 10
1.251475720321845
 20
7.9015067247610986
 30
0.0
 11
-0.0000000000000055
 21
8.0
 31
0.0
  0
LINE
  5
20A3
  8
0
  6
CONTINUOUS
 10
3.3137084989847612
 20
8.0
 30
0.0
 11
3.4122017742236599
 21
7.9015067247610986
 31
0.0
  0
LINE
  5
20A4
  8
0
  6
CONTINUOUS
 10
2.4721359549995809
 20
7.608452130361222
 30
0.0
 11
1.251475720321845
 21
7.9015067247610986
 31
0.0
  0
LINE
  5
20A5
  8
0
  6
CONTINUOUS
 10
3.4122017742236599
 20
7.9015067247610986
 30
0.0
 11
3.7052563686235351
 21
7.608452130361222
 31
0.0
  0
LINE
  5
20A6
  8
0
  6
CONTINUOUS
 10
3.6319239979163789
 20
7.1280521935069308
 30
0.0
 11
2.4721359549995809
 21
7.608452130361222
 31
0.0
  0
LINE
  5
20A7
  8
0
  6
CONTINUOUS
 10
3.7052563686235351
 20
7.608452130361222
 30
0.0
 11
4.1856563054778206
 21
7.1280521935069308
 31
0.0
  0
LINE
  5
20A8
  8
0
  6
CONTINUOUS
 10
4.8415725439851851
 20
6.472135954999561
 30
0.0
 11
5.656854249492385
 21
5.656854249492353
 31
0.0
  0
LINE
  5
20A9
  8
0
  6
CONTINUOUS
 10
5.656854249492385
 20
5.656854249492353
 30
0.0
 11
4.7022820183397922
 21
6.472135954999561
 31
0.0
  0
LINE
  5
20AA
  8
0
  6
CONTINUOUS
 10
4.7022820183397922
 20
6.472135954999561
 30
0.0
 11
3.6319239979163789
 21
7.1280521935069308
 31
0.0
  0
LINE
  5
20AB
  8
0
  6
CONTINUOUS
 10
4.1856563054778206
 20
7.1280521935069308
 30
0.0
 11
4.8415725439851851
 21
6.472135954999561
 31
0.0
  0
LINE
  5
20AC
  8
0
  6
CONTINUOUS
 10
5.6568542494923699
 20
-5.6568542494923681
 30
0.0
 11
4.8415725439851771
 21
-6.472135954999569
 31
0.0
  0
LINE
  5
20AD
  8
0
  6
CONTINUOUS
 10
4.7022820183397771
 20
-6.472135954999569
 30
0.0
 11
5.6568542494923699
 21
-5.6568542494923681
 31
0.0
  0
LINE
  5
20AE
  8
0
  6
CONTINUOUS
 10
3.6319239979163691
 20
-7.1280521935069361
 30
0.0
 11
4.7022820183397771
 21
-6.472135954999569
 31
0.0
  0
LINE
  5
20AF
  8
0
  6
CONTINUOUS
 10
4.8415725439851771
 20
-6.472135954999569
 30
0.0
 11
4.1856563054778171
 21
-7.1280521935069361
 31
0.0
  0
LINE
  5
20B0
  8
0
  6
CONTINUOUS
 10
2.4721359549995738
 20
-7.6084521303612238
 30
0.0
 11
3.6319239979163691
 21
-7.1280521935069361
 31
0.0
  0
LINE
  5
20B1
  8
0
  6
CONTINUOUS
 10
4.1856563054778171
 20
-7.1280521935069361
 30
0.0
 11
3.7052563686235329
 21
-7.6084521303612238
 31
0.0
  0
LINE
  5
20B2
  8
0
  6
CONTINUOUS
 10
1.2514757203218421
 20
-7.9015067247610986
 30
0.0
 11
2.4721359549995738
 21
-7.6084521303612238
 31
0.0
  0
LINE
  5
20B3
  8
0
  6
CONTINUOUS
 10
3.7052563686235329
 20
-7.6084521303612238
 30
0.0
 11
3.4122017742236612
 21
-7.9015067247610986
 31
0.0
  0
LINE
  5
20B4
  8
0
  6
CONTINUOUS
 10
3.3137084989847621
 20
-8.0
 30
0.0
 11
0.0
 21
-11.3137084989847896
 31
0.0
  0
LINE
  5
20B5
  8
0
  6
CONTINUOUS
 10
0.0
 20
-11.3137084989847896
 30
0.0
 11
0.0
 21
-8.0
 31
0.0
  0
LINE
  5
20B6
  8
0
  6
CONTINUOUS
 10
0.0
 20
-8.0
 30
0.0
 11
1.2514757203218421
 21
-7.9015067247610986
 31
0.0
  0
LINE
  5
20B7
  8
0
  6
CONTINUOUS
 10
3.4122017742236612
 20
-7.9015067247610986
 30
0.0
 11
3.3137084989847621
 21
-8.0
 31
0.0
  0
ENDBLK
  5
20B9
  8
0
  0
ENDSEC
  0
SECTION
  2
ENTITIES
  0
ARC
  5
12AB
  8
0
  6
CONTINUOUS
 62
     7
 10
136.3758994276724081
 20
108.6672512200182013
 30
0.0
 40
6.6985724605235051
 50
259.6834107789896962
 51
269.1333548446926898
  0
ARC
  5
12B3
  8
0
  6
CONTINUOUS
 62
     7
 10
136.3743969187015068
 20
8.3082089052665609
 30
0.0
 40
6.6876320886549996
 50
89.6111703110968989
 51
100.3205668964131974
  0
ARC
  5
12B6
  8
0
  6
CONTINUOUS
 62
     7
 10
107.8559443128813058
 20
108.6563655331814999
 30
0.0
 40
6.6875943907549988
 50
270.6959292242224251
 51
280.320660869890105
  0
ARC
  5
12B7
  8
0
  6
CONTINUOUS
 62
     7
 10
122.1151647728165983
 20
86.6070656988464123
 30
0.0
 40
72.8991226902350036
 50
259.6787632931163898
 51
280.3212488690205078
  0
ARC
  5
12BA
  8
0
  6
CONTINUOUS
 62
     7
 10
122.1151647707264942
 20
30.3575477623716417
 30
0.0
 40
72.8991226902350036
 50
79.6787511294947279
 51
100.3212367051885963
  0
ARC
  5
12BF
  8
0
  6
CONTINUOUS
 62
     7
 10
107.8559443127862068
 20
8.3082479285117046
 30
0.0
 40
6.6875943907549988
 50
79.6793391299013365
 51
88.0947803178042648
  0
LINE
  5
12C1
  8
0
  6
CONTINUOUS
 62
     7
 10
147.4727302603467933
 20
24.3724824122609292
 30
0.0
 11
147.4727302603467933
 21
92.592131178608625
 31
0.0
  0
LINE
  5
12C2
  8
0
  6
CONTINUOUS
 62
     7
 10
96.7576079913711453
 20
92.5921312043233797
 30
0.0
 11
96.7576079913711453
 21
24.3724823865461815
 31
0.0
  0
ARC
  5
12E5
  8
0
 10
143.1151691546110101
 20
17.9823067865847115
 30
0.0
 40
5.5
 50
65.9067438303346762
 51
192.2525664397732044
  0
ARC
  5
12E6
  8
0
 10
101.1151691546109959
 20
17.9823067865847115
 30
0.0
 40
5.5
 50
347.6653079130234119
 51
114.0932566852611956
  0
ARC
  5
12E7
  8
0
 10
98.2576079913711453
 20
92.5921312043233797
 30
0.0
 40
1.5
 50
65.9067433147386055
 51
180.0
  0
ARC
  5
12E8
  8
0
 10
145.9727302603467933
 20
92.592131178608625
 30
0.0
 40
1.5
 50
0.0
 51
114.0932561696646985
  0
ARC
  5
12E9
  8
0
 10
98.2576079913711453
 20
24.3724823865461815
 30
0.0
 40
1.5
 50
180.0
 51
294.0932566852608829
  0
ARC
  5
12EA
  8
0
 10
145.9727302603467933
 20
24.3724824122609292
 30
0.0
 40
1.5
 50
245.9067438303351025
 51
0.0
  0
ARC
  5
12F0
  8
0
 10
107.9535840059159
 20
16.4869532091813085
 30
0.0
 40
1.5
 50
167.6653079130234119
 51
274.768600804336188
  0
ARC
  5
12F7
  8
0
 10
136.2746179444947927
 20
16.4967566723923085
 30
0.0
 40
1.5
 50
269.5927619776614961
 51
12.2525664397732506
  0
LINE
  5
12F8
  8
0
 10
136.4197812378783965
 20
14.9956869962049399
 30
0.0
 11
136.2639565677679911
 21
14.9967945611887306
 31
0.0
  0
CIRCLE
  5
12F9
  8
0
 10
101.1151691546109959
 20
83.4823068042848462
 30
0.0
 40
3.0
  0
CIRCLE
  5
1301
  8
0
 10
143.1151691546110101
 20
83.4823068042848462
 30
0.0
 40
3.0
  0
CIRCLE
  5
1302
  8
0
 10
143.1151691546110101
 20
33.4823067865847221
 30
0.0
 40
3.0
  0
CIRCLE
  5
1303
  8
0
 10
101.1151691546109959
 20
33.4823067865847221
 30
0.0
 40
3.0
  0
ARC
  5
130C
  8
0
 10
136.2749630350822088
 20
100.4694450770625025
 30
0.0
 40
1.5
 50
347.7341309657091983
 51
90.0145564754316467
  0
ARC
  5
1310
  8
0
 10
101.1151691546109959
 20
98.9823068042848462
 30
0.0
 40
5.5
 50
245.9067433147388897
 51
12.2652828778674401
  0
ARC
  5
1315
  8
0
 10
107.9553904877410986
 20
100.4693750992169043
 30
0.0
 40
1.5
 50
90.6959292242220414
 51
192.2652828778672074
  0
ARC
  5
131D
  8
0
 10
143.1151691546110101
 20
98.9823068042848462
 30
0.0
 40
5.5
 50
167.7341309657086867
 51
294.0932561696653806
  0
POLYLINE
  5
131E
  8
0
  6
CONTINUOUS
 62
     7
 66
     1
 10
0.0
 20
0.0
 30
0.0
  0
VERTEX
  5
20F3
  8
0
  6
CONTINUOUS
 62
     7
 10
136.2794662968672981
 20
101.9694462695634058
 30
0.0
  0
VERTEX
  5
20F4
  8
0
  6
CONTINUOUS
 62
     7
 10
136.274581947450713
 20
101.969445028653297
 30
0.0
  0
SEQEND
  5
20F5
  8
0
  6
CONTINUOUS
 62
     7
  0
VIEWPORT
  5
145D
 67
     1
  8
0
 10
128.5
 20
97.5
 30
0.0
 40
434.6396250000000236
 41
222.1800000000000068
 68
     1
 69
     1
1001
ACAD
1000
MVIEW
1002
{
1070
    16
1010
0.0
1020
0.0
1030
0.0
1010
0.0
1020
0.0
1030
1.0
1040
0.0
1040
222.1800000000000068
1040
128.5
1040
97.5
1040
50.0
1040
0.0
1040
0.0
1070
     0
1070
  1000
1070
     1
1070
     1
1070
     0
1070
     0
1070
     0
1070
     0
1040
0.0
1040
0.0
1040
0.0
1040
10.0
1040
10.0
1040
10.0
1040
10.0
1070
     0
1002
{
1002
}
1002
}
  0
VIEWPORT
  5
1461
 67
     1
  8
0
 10
128.2224524037395099
 20
97.5
 30
0.0
 40
86.3173201465508555
 41
156.0
 68
     2
 69
     2
1001
ACAD
1000
MVIEW
1002
{
1070
    16
1010
0.0
1020
0.0
1030
0.0
1010
0.0
1020
0.0
1030
1.0
1040
0.0
1040
95.269966152069216
1040
121.9456694744244061
1040
58.4823068040347422
1040
50.0
1040
0.0
1040
0.0
1070
     0
1070
  1000
1070
     1
1070
     3
1070
     0
1070
     0
1070
     0
1070
     0
1040
0.0
1040
0.0
1040
0.0
1040
0.5
1040
0.5
1040
0.5
1040
0.5
1070
     0
1002
{
1002
}
1002
}
  0
ENDSEC
  0
EOF
