%TF.GenerationSoftware,KiCad,Pcbnew,(6.0.4)*%
%TF.CreationDate,2022-05-01T17:18:24+08:00*%
%TF.ProjectId,RFID-siteV_1_0,52464944-2d73-4697-9465-565f315f302e,rev?*%
%TF.SameCoordinates,Original*%
%TF.FileFunction,Legend,Bot*%
%TF.FilePolarity,Positive*%
%FSLAX46Y46*%
G04 Gerber Fmt 4.6, Leading zero omitted, Abs format (unit mm)*
G04 Created by KiCad (PCBNEW (6.0.4)) date 2022-05-01 17:18:24*
%MOMM*%
%LPD*%
G01*
G04 APERTURE LIST*
%ADD10C,0.300000*%
%ADD11C,0.200000*%
%ADD12C,0.150000*%
%ADD13C,0.120000*%
G04 APERTURE END LIST*
D10*
X86335671Y-101336114D02*
X87407100Y-101336114D01*
X87621385Y-101264685D01*
X87764242Y-101121828D01*
X87835671Y-100907542D01*
X87835671Y-100764685D01*
X87835671Y-102050400D02*
X86335671Y-102050400D01*
X86335671Y-102621828D01*
X86407100Y-102764685D01*
X86478528Y-102836114D01*
X86621385Y-102907542D01*
X86835671Y-102907542D01*
X86978528Y-102836114D01*
X87049957Y-102764685D01*
X87121385Y-102621828D01*
X87121385Y-102050400D01*
X87835671Y-104336114D02*
X87835671Y-103478971D01*
X87835671Y-103907542D02*
X86335671Y-103907542D01*
X86549957Y-103764685D01*
X86692814Y-103621828D01*
X86764242Y-103478971D01*
X87692814Y-104978971D02*
X87764242Y-105050400D01*
X87835671Y-104978971D01*
X87764242Y-104907542D01*
X87692814Y-104978971D01*
X87835671Y-104978971D01*
X86907100Y-104978971D02*
X86978528Y-105050400D01*
X87049957Y-104978971D01*
X86978528Y-104907542D01*
X86907100Y-104978971D01*
X87049957Y-104978971D01*
X87835671Y-105693257D02*
X86335671Y-105693257D01*
X87407100Y-106193257D01*
X86335671Y-106693257D01*
X87835671Y-106693257D01*
X86335671Y-107693257D02*
X86335671Y-107836114D01*
X86407100Y-107978971D01*
X86478528Y-108050400D01*
X86621385Y-108121828D01*
X86907100Y-108193257D01*
X87264242Y-108193257D01*
X87549957Y-108121828D01*
X87692814Y-108050400D01*
X87764242Y-107978971D01*
X87835671Y-107836114D01*
X87835671Y-107693257D01*
X87764242Y-107550400D01*
X87692814Y-107478971D01*
X87549957Y-107407542D01*
X87264242Y-107336114D01*
X86907100Y-107336114D01*
X86621385Y-107407542D01*
X86478528Y-107478971D01*
X86407100Y-107550400D01*
X86335671Y-107693257D01*
X88750671Y-101336114D02*
X89822100Y-101336114D01*
X90036385Y-101264685D01*
X90179242Y-101121828D01*
X90250671Y-100907542D01*
X90250671Y-100764685D01*
X90250671Y-102050400D02*
X88750671Y-102050400D01*
X88750671Y-102621828D01*
X88822100Y-102764685D01*
X88893528Y-102836114D01*
X89036385Y-102907542D01*
X89250671Y-102907542D01*
X89393528Y-102836114D01*
X89464957Y-102764685D01*
X89536385Y-102621828D01*
X89536385Y-102050400D01*
X88893528Y-103478971D02*
X88822100Y-103550400D01*
X88750671Y-103693257D01*
X88750671Y-104050400D01*
X88822100Y-104193257D01*
X88893528Y-104264685D01*
X89036385Y-104336114D01*
X89179242Y-104336114D01*
X89393528Y-104264685D01*
X90250671Y-103407542D01*
X90250671Y-104336114D01*
X90107814Y-104978971D02*
X90179242Y-105050400D01*
X90250671Y-104978971D01*
X90179242Y-104907542D01*
X90107814Y-104978971D01*
X90250671Y-104978971D01*
X89322100Y-104978971D02*
X89393528Y-105050400D01*
X89464957Y-104978971D01*
X89393528Y-104907542D01*
X89322100Y-104978971D01*
X89464957Y-104978971D01*
X90250671Y-105693257D02*
X88750671Y-105693257D01*
X89822100Y-106193257D01*
X88750671Y-106693257D01*
X90250671Y-106693257D01*
X90250671Y-108193257D02*
X90250671Y-107336114D01*
X90250671Y-107764685D02*
X88750671Y-107764685D01*
X88964957Y-107621828D01*
X89107814Y-107478971D01*
X89179242Y-107336114D01*
X91165671Y-101336114D02*
X92237100Y-101336114D01*
X92451385Y-101264685D01*
X92594242Y-101121828D01*
X92665671Y-100907542D01*
X92665671Y-100764685D01*
X92665671Y-102050400D02*
X91165671Y-102050400D01*
X91165671Y-102621828D01*
X91237100Y-102764685D01*
X91308528Y-102836114D01*
X91451385Y-102907542D01*
X91665671Y-102907542D01*
X91808528Y-102836114D01*
X91879957Y-102764685D01*
X91951385Y-102621828D01*
X91951385Y-102050400D01*
X91165671Y-103407542D02*
X91165671Y-104336114D01*
X91737100Y-103836114D01*
X91737100Y-104050400D01*
X91808528Y-104193257D01*
X91879957Y-104264685D01*
X92022814Y-104336114D01*
X92379957Y-104336114D01*
X92522814Y-104264685D01*
X92594242Y-104193257D01*
X92665671Y-104050400D01*
X92665671Y-103621828D01*
X92594242Y-103478971D01*
X92522814Y-103407542D01*
X92522814Y-104978971D02*
X92594242Y-105050400D01*
X92665671Y-104978971D01*
X92594242Y-104907542D01*
X92522814Y-104978971D01*
X92665671Y-104978971D01*
X91737100Y-104978971D02*
X91808528Y-105050400D01*
X91879957Y-104978971D01*
X91808528Y-104907542D01*
X91737100Y-104978971D01*
X91879957Y-104978971D01*
X92665671Y-106407542D02*
X92665671Y-105693257D01*
X91165671Y-105693257D01*
X92665671Y-107121828D02*
X92594242Y-106978971D01*
X92522814Y-106907542D01*
X92379957Y-106836114D01*
X91951385Y-106836114D01*
X91808528Y-106907542D01*
X91737100Y-106978971D01*
X91665671Y-107121828D01*
X91665671Y-107336114D01*
X91737100Y-107478971D01*
X91808528Y-107550400D01*
X91951385Y-107621828D01*
X92379957Y-107621828D01*
X92522814Y-107550400D01*
X92594242Y-107478971D01*
X92665671Y-107336114D01*
X92665671Y-107121828D01*
X92665671Y-109121828D02*
X91951385Y-108621828D01*
X92665671Y-108264685D02*
X91165671Y-108264685D01*
X91165671Y-108836114D01*
X91237100Y-108978971D01*
X91308528Y-109050400D01*
X91451385Y-109121828D01*
X91665671Y-109121828D01*
X91808528Y-109050400D01*
X91879957Y-108978971D01*
X91951385Y-108836114D01*
X91951385Y-108264685D01*
X92665671Y-110407542D02*
X91879957Y-110407542D01*
X91737100Y-110336114D01*
X91665671Y-110193257D01*
X91665671Y-109907542D01*
X91737100Y-109764685D01*
X92594242Y-110407542D02*
X92665671Y-110264685D01*
X92665671Y-109907542D01*
X92594242Y-109764685D01*
X92451385Y-109693257D01*
X92308528Y-109693257D01*
X92165671Y-109764685D01*
X92094242Y-109907542D01*
X92094242Y-110264685D01*
X92022814Y-110407542D01*
X92665671Y-113121828D02*
X91951385Y-112621828D01*
X92665671Y-112264685D02*
X91165671Y-112264685D01*
X91165671Y-112836114D01*
X91237100Y-112978971D01*
X91308528Y-113050400D01*
X91451385Y-113121828D01*
X91665671Y-113121828D01*
X91808528Y-113050400D01*
X91879957Y-112978971D01*
X91951385Y-112836114D01*
X91951385Y-112264685D01*
X91165671Y-113621828D02*
X92665671Y-114621828D01*
X91165671Y-114621828D02*
X92665671Y-113621828D01*
X93580671Y-101336114D02*
X94652100Y-101336114D01*
X94866385Y-101264685D01*
X95009242Y-101121828D01*
X95080671Y-100907542D01*
X95080671Y-100764685D01*
X95080671Y-102050400D02*
X93580671Y-102050400D01*
X93580671Y-102621828D01*
X93652100Y-102764685D01*
X93723528Y-102836114D01*
X93866385Y-102907542D01*
X94080671Y-102907542D01*
X94223528Y-102836114D01*
X94294957Y-102764685D01*
X94366385Y-102621828D01*
X94366385Y-102050400D01*
X94080671Y-104193257D02*
X95080671Y-104193257D01*
X93509242Y-103836114D02*
X94580671Y-103478971D01*
X94580671Y-104407542D01*
X94937814Y-104978971D02*
X95009242Y-105050400D01*
X95080671Y-104978971D01*
X95009242Y-104907542D01*
X94937814Y-104978971D01*
X95080671Y-104978971D01*
X94152100Y-104978971D02*
X94223528Y-105050400D01*
X94294957Y-104978971D01*
X94223528Y-104907542D01*
X94152100Y-104978971D01*
X94294957Y-104978971D01*
X95080671Y-106407542D02*
X95080671Y-105693257D01*
X93580671Y-105693257D01*
X95080671Y-107121828D02*
X95009242Y-106978971D01*
X94937814Y-106907542D01*
X94794957Y-106836114D01*
X94366385Y-106836114D01*
X94223528Y-106907542D01*
X94152100Y-106978971D01*
X94080671Y-107121828D01*
X94080671Y-107336114D01*
X94152100Y-107478971D01*
X94223528Y-107550400D01*
X94366385Y-107621828D01*
X94794957Y-107621828D01*
X94937814Y-107550400D01*
X95009242Y-107478971D01*
X95080671Y-107336114D01*
X95080671Y-107121828D01*
X95080671Y-108264685D02*
X94080671Y-108264685D01*
X94366385Y-108264685D02*
X94223528Y-108336114D01*
X94152100Y-108407542D01*
X94080671Y-108550400D01*
X94080671Y-108693257D01*
X95080671Y-109836114D02*
X94294957Y-109836114D01*
X94152100Y-109764685D01*
X94080671Y-109621828D01*
X94080671Y-109336114D01*
X94152100Y-109193257D01*
X95009242Y-109836114D02*
X95080671Y-109693257D01*
X95080671Y-109336114D01*
X95009242Y-109193257D01*
X94866385Y-109121828D01*
X94723528Y-109121828D01*
X94580671Y-109193257D01*
X94509242Y-109336114D01*
X94509242Y-109693257D01*
X94437814Y-109836114D01*
X93580671Y-111478971D02*
X93580671Y-112336114D01*
X95080671Y-111907542D02*
X93580671Y-111907542D01*
X93580671Y-112693257D02*
X95080671Y-113693257D01*
X93580671Y-113693257D02*
X95080671Y-112693257D01*
D11*
X95631000Y-100355400D02*
X85775800Y-100355400D01*
X85775800Y-100355400D02*
X85775800Y-115341400D01*
X85775800Y-115341400D02*
X95631000Y-115341400D01*
X95631000Y-115341400D02*
X95631000Y-100355400D01*
D12*
%TO.C,JP4*%
X105725980Y-107954866D02*
X106440266Y-107954866D01*
X106583123Y-107907247D01*
X106678361Y-107812009D01*
X106725980Y-107669152D01*
X106725980Y-107573914D01*
X106725980Y-108431057D02*
X105725980Y-108431057D01*
X105725980Y-108812009D01*
X105773600Y-108907247D01*
X105821219Y-108954866D01*
X105916457Y-109002485D01*
X106059314Y-109002485D01*
X106154552Y-108954866D01*
X106202171Y-108907247D01*
X106249790Y-108812009D01*
X106249790Y-108431057D01*
X106059314Y-109859628D02*
X106725980Y-109859628D01*
X105678361Y-109621533D02*
X106392647Y-109383438D01*
X106392647Y-110002485D01*
%TO.C,JP3*%
X103135180Y-107954866D02*
X103849466Y-107954866D01*
X103992323Y-107907247D01*
X104087561Y-107812009D01*
X104135180Y-107669152D01*
X104135180Y-107573914D01*
X104135180Y-108431057D02*
X103135180Y-108431057D01*
X103135180Y-108812009D01*
X103182800Y-108907247D01*
X103230419Y-108954866D01*
X103325657Y-109002485D01*
X103468514Y-109002485D01*
X103563752Y-108954866D01*
X103611371Y-108907247D01*
X103658990Y-108812009D01*
X103658990Y-108431057D01*
X103135180Y-109335819D02*
X103135180Y-109954866D01*
X103516133Y-109621533D01*
X103516133Y-109764390D01*
X103563752Y-109859628D01*
X103611371Y-109907247D01*
X103706609Y-109954866D01*
X103944704Y-109954866D01*
X104039942Y-109907247D01*
X104087561Y-109859628D01*
X104135180Y-109764390D01*
X104135180Y-109478676D01*
X104087561Y-109383438D01*
X104039942Y-109335819D01*
%TO.C,JP2*%
X100518980Y-107954866D02*
X101233266Y-107954866D01*
X101376123Y-107907247D01*
X101471361Y-107812009D01*
X101518980Y-107669152D01*
X101518980Y-107573914D01*
X101518980Y-108431057D02*
X100518980Y-108431057D01*
X100518980Y-108812009D01*
X100566600Y-108907247D01*
X100614219Y-108954866D01*
X100709457Y-109002485D01*
X100852314Y-109002485D01*
X100947552Y-108954866D01*
X100995171Y-108907247D01*
X101042790Y-108812009D01*
X101042790Y-108431057D01*
X100614219Y-109383438D02*
X100566600Y-109431057D01*
X100518980Y-109526295D01*
X100518980Y-109764390D01*
X100566600Y-109859628D01*
X100614219Y-109907247D01*
X100709457Y-109954866D01*
X100804695Y-109954866D01*
X100947552Y-109907247D01*
X101518980Y-109335819D01*
X101518980Y-109954866D01*
%TO.C,JP1*%
X97902780Y-107954866D02*
X98617066Y-107954866D01*
X98759923Y-107907247D01*
X98855161Y-107812009D01*
X98902780Y-107669152D01*
X98902780Y-107573914D01*
X98902780Y-108431057D02*
X97902780Y-108431057D01*
X97902780Y-108812009D01*
X97950400Y-108907247D01*
X97998019Y-108954866D01*
X98093257Y-109002485D01*
X98236114Y-109002485D01*
X98331352Y-108954866D01*
X98378971Y-108907247D01*
X98426590Y-108812009D01*
X98426590Y-108431057D01*
X98902780Y-109954866D02*
X98902780Y-109383438D01*
X98902780Y-109669152D02*
X97902780Y-109669152D01*
X98045638Y-109573914D01*
X98140876Y-109478676D01*
X98188495Y-109383438D01*
D13*
%TO.C,JP4*%
X107299000Y-106389400D02*
X107299000Y-104989400D01*
X105299000Y-104989400D02*
X105299000Y-106389400D01*
X106599000Y-104289400D02*
X105999000Y-104289400D01*
X105999000Y-107089400D02*
X106599000Y-107089400D01*
X107299000Y-104989400D02*
G75*
G03*
X106599000Y-104289400I-700000J0D01*
G01*
X106599000Y-107089400D02*
G75*
G03*
X107299000Y-106389400I1J699999D01*
G01*
X105299000Y-106389400D02*
G75*
G03*
X105999000Y-107089400I699999J-1D01*
G01*
X105999000Y-104289400D02*
G75*
G03*
X105299000Y-104989400I0J-700000D01*
G01*
%TO.C,JP3*%
X104708200Y-106389400D02*
X104708200Y-104989400D01*
X102708200Y-104989400D02*
X102708200Y-106389400D01*
X104008200Y-104289400D02*
X103408200Y-104289400D01*
X103408200Y-107089400D02*
X104008200Y-107089400D01*
X104708200Y-104989400D02*
G75*
G03*
X104008200Y-104289400I-700000J0D01*
G01*
X104008200Y-107089400D02*
G75*
G03*
X104708200Y-106389400I1J699999D01*
G01*
X102708200Y-106389400D02*
G75*
G03*
X103408200Y-107089400I699999J-1D01*
G01*
X103408200Y-104289400D02*
G75*
G03*
X102708200Y-104989400I0J-700000D01*
G01*
%TO.C,JP2*%
X102092000Y-106389400D02*
X102092000Y-104989400D01*
X100092000Y-104989400D02*
X100092000Y-106389400D01*
X101392000Y-104289400D02*
X100792000Y-104289400D01*
X100792000Y-107089400D02*
X101392000Y-107089400D01*
X102092000Y-104989400D02*
G75*
G03*
X101392000Y-104289400I-700000J0D01*
G01*
X101392000Y-107089400D02*
G75*
G03*
X102092000Y-106389400I1J699999D01*
G01*
X100092000Y-106389400D02*
G75*
G03*
X100792000Y-107089400I699999J-1D01*
G01*
X100792000Y-104289400D02*
G75*
G03*
X100092000Y-104989400I0J-700000D01*
G01*
%TO.C,JP1*%
X99475800Y-106389400D02*
X99475800Y-104989400D01*
X97475800Y-104989400D02*
X97475800Y-106389400D01*
X98775800Y-104289400D02*
X98175800Y-104289400D01*
X98175800Y-107089400D02*
X98775800Y-107089400D01*
X99475800Y-104989400D02*
G75*
G03*
X98775800Y-104289400I-700000J0D01*
G01*
X98775800Y-107089400D02*
G75*
G03*
X99475800Y-106389400I1J699999D01*
G01*
X97475800Y-106389400D02*
G75*
G03*
X98175800Y-107089400I699999J-1D01*
G01*
X98175800Y-104289400D02*
G75*
G03*
X97475800Y-104989400I0J-700000D01*
G01*
%TD*%
M02*
