M48
; DRILL file {KiCad (6.0.4)} date Sun May  1 17:18:24 2022
; FORMAT={-:-/ absolute / inch / decimal}
; #@! TF.CreationDate,2022-05-01T17:18:24+08:00
; #@! TF.GenerationSoftware,Kicad,Pcbnew,(6.0.4)
; #@! TF.FileFunction,Plated,1,2,PTH
FMAT,2
INCH
; #@! TA.AperFunction,Plated,PTH,ViaDrill
T1C0.0157
; #@! TA.AperFunction,Plated,PTH,ComponentDrill
T2C0.0236
; #@! TA.AperFunction,Plated,PTH,ComponentDrill
T3C0.0394
%
G90
G05
T1
X2.942Y-6.153
X2.947Y-6.27
X3.037Y-6.096
X3.0381Y-6.0567
X3.292Y-6.765
X3.313Y-6.205
X3.459Y-6.603
X3.467Y-6.693
X3.491Y-5.417
X3.496Y-5.516
X3.556Y-5.729
X3.624Y-6.514
X3.635Y-6.435
X3.7281Y-6.2168
X3.7499Y-6.184
X3.7684Y-6.1482
X3.783Y-6.488
X3.783Y-6.77
X3.805Y-5.749
X3.879Y-4.033
X3.891Y-6.482
X3.9144Y-6.0711
X3.916Y-6.2219
X3.9261Y-6.0335
X3.932Y-6.766
X3.973Y-4.425
X3.975Y-5.452
X3.976Y-5.578
X3.982Y-4.033
X3.984Y-6.453
X3.984Y-6.499
X4.026Y-4.428
X4.072Y-4.426
X4.096Y-5.725
X4.103Y-6.2155
X4.119Y-4.429
X4.126Y-5.664
X4.134Y-5.801
X4.225Y-4.595
X4.2285Y-4.345
X4.611Y-5.818
X4.617Y-5.865
T3
X3.635Y-5.568
X3.735Y-5.568
X3.835Y-5.568
X4.69Y-4.4442
X4.69Y-4.5442
X4.69Y-4.6442
X4.69Y-4.7442
X4.69Y-4.8442
X4.766Y-5.586
X4.766Y-5.686
X4.766Y-5.786
X4.766Y-5.886
X4.766Y-5.986
T2
G00X3.657Y-6.5811
M15
G01X3.657Y-6.6244
M16
G05
G00X3.657Y-6.7555
M15
G01X3.657Y-6.7791
M16
G05
G00X3.9972Y-6.5811
M15
G01X3.9972Y-6.6244
M16
G05
G00X3.9972Y-6.7555
M15
G01X3.9972Y-6.7791
M16
G05
T0
M30
