%TF.GenerationSoftware,KiCad,Pcbnew,(6.0.4)*%
%TF.CreationDate,2022-05-01T17:18:24+08:00*%
%TF.ProjectId,RFID-siteV_1_0,52464944-2d73-4697-9465-565f315f302e,rev?*%
%TF.SameCoordinates,Original*%
%TF.FileFunction,Soldermask,Top*%
%TF.FilePolarity,Negative*%
%FSLAX46Y46*%
G04 Gerber Fmt 4.6, Leading zero omitted, Abs format (unit mm)*
G04 Created by KiCad (PCBNEW (6.0.4)) date 2022-05-01 17:18:24*
%MOMM*%
%LPD*%
G01*
G04 APERTURE LIST*
G04 Aperture macros list*
%AMRoundRect*
0 Rectangle with rounded corners*
0 $1 Rounding radius*
0 $2 $3 $4 $5 $6 $7 $8 $9 X,Y pos of 4 corners*
0 Add a 4 corners polygon primitive as box body*
4,1,4,$2,$3,$4,$5,$6,$7,$8,$9,$2,$3,0*
0 Add four circle primitives for the rounded corners*
1,1,$1+$1,$2,$3*
1,1,$1+$1,$4,$5*
1,1,$1+$1,$6,$7*
1,1,$1+$1,$8,$9*
0 Add four rect primitives between the rounded corners*
20,1,$1+$1,$2,$3,$4,$5,0*
20,1,$1+$1,$4,$5,$6,$7,0*
20,1,$1+$1,$6,$7,$8,$9,0*
20,1,$1+$1,$8,$9,$2,$3,0*%
G04 Aperture macros list end*
%ADD10RoundRect,0.250000X0.250000X0.475000X-0.250000X0.475000X-0.250000X-0.475000X0.250000X-0.475000X0*%
%ADD11R,1.700000X1.700000*%
%ADD12O,1.700000X1.700000*%
%ADD13C,2.500000*%
%ADD14R,0.900000X1.800000*%
%ADD15RoundRect,0.075000X-0.075000X0.700000X-0.075000X-0.700000X0.075000X-0.700000X0.075000X0.700000X0*%
%ADD16RoundRect,0.075000X-0.700000X0.075000X-0.700000X-0.075000X0.700000X-0.075000X0.700000X0.075000X0*%
%ADD17RoundRect,0.150000X-0.587500X-0.150000X0.587500X-0.150000X0.587500X0.150000X-0.587500X0.150000X0*%
%ADD18R,1.600000X1.400000*%
%ADD19RoundRect,0.250000X-0.262500X-0.450000X0.262500X-0.450000X0.262500X0.450000X-0.262500X0.450000X0*%
%ADD20RoundRect,0.250000X0.450000X-0.262500X0.450000X0.262500X-0.450000X0.262500X-0.450000X-0.262500X0*%
%ADD21RoundRect,0.250000X0.262500X0.450000X-0.262500X0.450000X-0.262500X-0.450000X0.262500X-0.450000X0*%
%ADD22RoundRect,0.150000X0.587500X0.150000X-0.587500X0.150000X-0.587500X-0.150000X0.587500X-0.150000X0*%
%ADD23C,0.650000*%
%ADD24R,0.600000X1.450000*%
%ADD25R,0.300000X1.450000*%
%ADD26O,1.000000X1.600000*%
%ADD27O,1.000000X2.100000*%
%ADD28RoundRect,0.250000X0.625000X-0.375000X0.625000X0.375000X-0.625000X0.375000X-0.625000X-0.375000X0*%
%ADD29RoundRect,0.243750X0.456250X-0.243750X0.456250X0.243750X-0.456250X0.243750X-0.456250X-0.243750X0*%
%ADD30RoundRect,0.243750X0.243750X0.456250X-0.243750X0.456250X-0.243750X-0.456250X0.243750X-0.456250X0*%
%ADD31RoundRect,0.250000X0.475000X-0.250000X0.475000X0.250000X-0.475000X0.250000X-0.475000X-0.250000X0*%
%ADD32RoundRect,0.250000X-0.250000X-0.475000X0.250000X-0.475000X0.250000X0.475000X-0.250000X0.475000X0*%
%ADD33RoundRect,0.250000X-0.475000X0.250000X-0.475000X-0.250000X0.475000X-0.250000X0.475000X0.250000X0*%
%ADD34R,1.200000X4.000000*%
G04 APERTURE END LIST*
D10*
%TO.C,C8*%
X100949800Y-161899600D03*
X99049800Y-161899600D03*
%TD*%
D11*
%TO.C,J3*%
X92329000Y-141427200D03*
D12*
X94869000Y-141427200D03*
X97409000Y-141427200D03*
%TD*%
D13*
%TO.C,H6*%
X116208239Y-106020952D03*
%TD*%
%TO.C,H5*%
X116208239Y-131920952D03*
%TD*%
%TO.C,H4*%
X116207982Y-161920952D03*
%TD*%
%TO.C,H3*%
X78207982Y-161920952D03*
%TD*%
%TO.C,H2*%
X78208239Y-131920952D03*
%TD*%
%TO.C,H1*%
X78208239Y-106020952D03*
%TD*%
D14*
%TO.C,U3*%
X108576000Y-115059200D03*
X107306000Y-115059200D03*
X106036000Y-115059200D03*
X104766000Y-115059200D03*
X103496000Y-115059200D03*
X102226000Y-115059200D03*
X100956000Y-115059200D03*
X99686000Y-115059200D03*
X88486000Y-115059200D03*
X87216000Y-115059200D03*
X85946000Y-115059200D03*
X85946000Y-99059200D03*
X87216000Y-99059200D03*
X88486000Y-99059200D03*
X99686000Y-99059200D03*
X100956000Y-99059200D03*
X102226000Y-99059200D03*
X103496000Y-99059200D03*
X104766000Y-99059200D03*
X106036000Y-99059200D03*
X107306000Y-99059200D03*
X108576000Y-99059200D03*
%TD*%
D15*
%TO.C,U2*%
X99482600Y-148426800D03*
X98982600Y-148426800D03*
X98482600Y-148426800D03*
X97982600Y-148426800D03*
X97482600Y-148426800D03*
X96982600Y-148426800D03*
X96482600Y-148426800D03*
X95982600Y-148426800D03*
X95482600Y-148426800D03*
X94982600Y-148426800D03*
X94482600Y-148426800D03*
X93982600Y-148426800D03*
X93482600Y-148426800D03*
X92982600Y-148426800D03*
X92482600Y-148426800D03*
X91982600Y-148426800D03*
D16*
X90057600Y-150351800D03*
X90057600Y-150851800D03*
X90057600Y-151351800D03*
X90057600Y-151851800D03*
X90057600Y-152351800D03*
X90057600Y-152851800D03*
X90057600Y-153351800D03*
X90057600Y-153851800D03*
X90057600Y-154351800D03*
X90057600Y-154851800D03*
X90057600Y-155351800D03*
X90057600Y-155851800D03*
X90057600Y-156351800D03*
X90057600Y-156851800D03*
X90057600Y-157351800D03*
X90057600Y-157851800D03*
D15*
X91982600Y-159776800D03*
X92482600Y-159776800D03*
X92982600Y-159776800D03*
X93482600Y-159776800D03*
X93982600Y-159776800D03*
X94482600Y-159776800D03*
X94982600Y-159776800D03*
X95482600Y-159776800D03*
X95982600Y-159776800D03*
X96482600Y-159776800D03*
X96982600Y-159776800D03*
X97482600Y-159776800D03*
X97982600Y-159776800D03*
X98482600Y-159776800D03*
X98982600Y-159776800D03*
X99482600Y-159776800D03*
D16*
X101407600Y-157851800D03*
X101407600Y-157351800D03*
X101407600Y-156851800D03*
X101407600Y-156351800D03*
X101407600Y-155851800D03*
X101407600Y-155351800D03*
X101407600Y-154851800D03*
X101407600Y-154351800D03*
X101407600Y-153851800D03*
X101407600Y-153351800D03*
X101407600Y-152851800D03*
X101407600Y-152351800D03*
X101407600Y-151851800D03*
X101407600Y-151351800D03*
X101407600Y-150851800D03*
X101407600Y-150351800D03*
%TD*%
D17*
%TO.C,U1*%
X83669900Y-164759600D03*
X83669900Y-166659600D03*
X85544900Y-165709600D03*
%TD*%
D18*
%TO.C,SW1*%
X110744000Y-144909800D03*
X117944000Y-144909800D03*
X110744000Y-141909800D03*
X117944000Y-141909800D03*
%TD*%
D19*
%TO.C,R13*%
X93001700Y-138557000D03*
X94826700Y-138557000D03*
%TD*%
%TO.C,R12*%
X96471100Y-138557000D03*
X98296100Y-138557000D03*
%TD*%
%TO.C,R11*%
X106954500Y-139828400D03*
X108779500Y-139828400D03*
%TD*%
%TO.C,R10*%
X99136200Y-119405400D03*
X100961200Y-119405400D03*
%TD*%
%TO.C,R9*%
X99138100Y-117297200D03*
X100963100Y-117297200D03*
%TD*%
%TO.C,R8*%
X78741900Y-154762200D03*
X80566900Y-154762200D03*
%TD*%
%TO.C,R7*%
X78743800Y-152730200D03*
X80568800Y-152730200D03*
%TD*%
D20*
%TO.C,R6*%
X86309200Y-140665200D03*
X86309200Y-138840200D03*
%TD*%
D19*
%TO.C,R5*%
X78741900Y-150698200D03*
X80566900Y-150698200D03*
%TD*%
%TO.C,R4*%
X86590500Y-146126200D03*
X88415500Y-146126200D03*
%TD*%
D21*
%TO.C,R3*%
X86713700Y-173380400D03*
X84888700Y-173380400D03*
%TD*%
D20*
%TO.C,R2*%
X90144600Y-167970200D03*
X90144600Y-169795200D03*
%TD*%
%TO.C,R1*%
X103962200Y-171803700D03*
X103962200Y-169978700D03*
%TD*%
D22*
%TO.C,Q1*%
X88211900Y-144256800D03*
X88211900Y-142356800D03*
X86336900Y-143306800D03*
%TD*%
D11*
%TO.C,J4*%
X121056400Y-152044400D03*
D12*
X121056400Y-149504400D03*
X121056400Y-146964400D03*
X121056400Y-144424400D03*
X121056400Y-141884400D03*
%TD*%
D11*
%TO.C,J2*%
X119126000Y-112882600D03*
D12*
X119126000Y-115422600D03*
X119126000Y-117962600D03*
X119126000Y-120502600D03*
X119126000Y-123042600D03*
%TD*%
D23*
%TO.C,J1*%
X100097982Y-168240400D03*
X94317982Y-168240400D03*
D24*
X93957982Y-166795400D03*
X94757982Y-166795400D03*
D25*
X95957982Y-166795400D03*
X96957982Y-166795400D03*
X97457982Y-166795400D03*
X98457982Y-166795400D03*
D24*
X99657982Y-166795400D03*
X100457982Y-166795400D03*
X100457982Y-166795400D03*
X99657982Y-166795400D03*
D25*
X98957982Y-166795400D03*
X97957982Y-166795400D03*
X96457982Y-166795400D03*
X95457982Y-166795400D03*
D24*
X94757982Y-166795400D03*
X93957982Y-166795400D03*
D26*
X92887982Y-171890400D03*
D27*
X92887982Y-167710400D03*
X101527982Y-167710400D03*
D26*
X101527982Y-171890400D03*
%TD*%
D28*
%TO.C,F1*%
X90017600Y-166093600D03*
X90017600Y-163293600D03*
%TD*%
D29*
%TO.C,D4*%
X72847200Y-161236900D03*
X72847200Y-159361900D03*
%TD*%
%TO.C,D3*%
X72847200Y-157604700D03*
X72847200Y-155729700D03*
%TD*%
%TO.C,D2*%
X72847200Y-153870900D03*
X72847200Y-151995900D03*
%TD*%
D30*
%TO.C,D1*%
X90878900Y-173786800D03*
X89003900Y-173786800D03*
%TD*%
D10*
%TO.C,C9*%
X108817000Y-141885800D03*
X106917000Y-141885800D03*
%TD*%
D31*
%TO.C,C7*%
X87452200Y-158750000D03*
X87452200Y-156850000D03*
%TD*%
%TO.C,C6*%
X87680800Y-152181600D03*
X87680800Y-150281600D03*
%TD*%
D32*
%TO.C,C5*%
X92699800Y-146177000D03*
X94599800Y-146177000D03*
%TD*%
D33*
%TO.C,C4*%
X103784400Y-149722800D03*
X103784400Y-151622800D03*
%TD*%
D32*
%TO.C,C3*%
X99481600Y-146075400D03*
X101381600Y-146075400D03*
%TD*%
D33*
%TO.C,C2*%
X83642200Y-168290200D03*
X83642200Y-170190200D03*
%TD*%
D31*
%TO.C,C1*%
X87706200Y-165694400D03*
X87706200Y-163794400D03*
%TD*%
D34*
%TO.C,BZ1*%
X73165400Y-141579600D03*
X84365400Y-141579600D03*
%TD*%
M02*
