%TF.GenerationSoftware,KiCad,Pcbnew,(6.0.4)*%
%TF.CreationDate,2022-04-29T23:06:03+08:00*%
%TF.ProjectId,RFID-mobileV_1_0,52464944-2d6d-46f6-9269-6c65565f315f,rev?*%
%TF.SameCoordinates,Original*%
%TF.FileFunction,Paste,Top*%
%TF.FilePolarity,Positive*%
%FSLAX46Y46*%
G04 Gerber Fmt 4.6, Leading zero omitted, Abs format (unit mm)*
G04 Created by KiCad (PCBNEW (6.0.4)) date 2022-04-29 23:06:03*
%MOMM*%
%LPD*%
G01*
G04 APERTURE LIST*
G04 Aperture macros list*
%AMRoundRect*
0 Rectangle with rounded corners*
0 $1 Rounding radius*
0 $2 $3 $4 $5 $6 $7 $8 $9 X,Y pos of 4 corners*
0 Add a 4 corners polygon primitive as box body*
4,1,4,$2,$3,$4,$5,$6,$7,$8,$9,$2,$3,0*
0 Add four circle primitives for the rounded corners*
1,1,$1+$1,$2,$3*
1,1,$1+$1,$4,$5*
1,1,$1+$1,$6,$7*
1,1,$1+$1,$8,$9*
0 Add four rect primitives between the rounded corners*
20,1,$1+$1,$2,$3,$4,$5,0*
20,1,$1+$1,$4,$5,$6,$7,0*
20,1,$1+$1,$6,$7,$8,$9,0*
20,1,$1+$1,$8,$9,$2,$3,0*%
G04 Aperture macros list end*
%ADD10RoundRect,0.243750X0.243750X0.456250X-0.243750X0.456250X-0.243750X-0.456250X0.243750X-0.456250X0*%
%ADD11RoundRect,0.250000X-0.262500X-0.450000X0.262500X-0.450000X0.262500X0.450000X-0.262500X0.450000X0*%
%ADD12RoundRect,0.150000X-0.587500X-0.150000X0.587500X-0.150000X0.587500X0.150000X-0.587500X0.150000X0*%
%ADD13RoundRect,0.250000X0.450000X-0.262500X0.450000X0.262500X-0.450000X0.262500X-0.450000X-0.262500X0*%
%ADD14RoundRect,0.250000X-0.450000X0.262500X-0.450000X-0.262500X0.450000X-0.262500X0.450000X0.262500X0*%
%ADD15R,0.600000X1.450000*%
%ADD16R,0.300000X1.450000*%
%ADD17RoundRect,0.243750X0.456250X-0.243750X0.456250X0.243750X-0.456250X0.243750X-0.456250X-0.243750X0*%
%ADD18R,1.400000X1.600000*%
%ADD19R,4.000000X1.200000*%
%ADD20R,0.900000X1.800000*%
%ADD21RoundRect,0.250000X0.250000X0.475000X-0.250000X0.475000X-0.250000X-0.475000X0.250000X-0.475000X0*%
%ADD22RoundRect,0.250000X0.262500X0.450000X-0.262500X0.450000X-0.262500X-0.450000X0.262500X-0.450000X0*%
%ADD23RoundRect,0.250000X-0.475000X0.250000X-0.475000X-0.250000X0.475000X-0.250000X0.475000X0.250000X0*%
%ADD24RoundRect,0.150000X-0.512500X-0.150000X0.512500X-0.150000X0.512500X0.150000X-0.512500X0.150000X0*%
%ADD25RoundRect,0.250000X0.475000X-0.250000X0.475000X0.250000X-0.475000X0.250000X-0.475000X-0.250000X0*%
%ADD26RoundRect,0.100000X-0.637500X-0.100000X0.637500X-0.100000X0.637500X0.100000X-0.637500X0.100000X0*%
G04 APERTURE END LIST*
D10*
%TO.C,D1*%
X67056000Y-143764000D03*
X65181000Y-143764000D03*
%TD*%
D11*
%TO.C,R12*%
X65206000Y-141732000D03*
X67031000Y-141732000D03*
%TD*%
D12*
%TO.C,U1*%
X98376500Y-157038000D03*
X98376500Y-158938000D03*
X100251500Y-157988000D03*
%TD*%
D13*
%TO.C,R4*%
X92456000Y-118285900D03*
X92456000Y-116460900D03*
%TD*%
D14*
%TO.C,R14*%
X111506000Y-138787500D03*
X111506000Y-140612500D03*
%TD*%
%TO.C,R7*%
X76479400Y-158271200D03*
X76479400Y-160096200D03*
%TD*%
D15*
%TO.C,J1*%
X86157996Y-162355000D03*
X86957996Y-162355000D03*
D16*
X88157996Y-162355000D03*
X89157996Y-162355000D03*
X89657996Y-162355000D03*
X90657996Y-162355000D03*
D15*
X91857996Y-162355000D03*
X92657996Y-162355000D03*
X92657996Y-162355000D03*
X91857996Y-162355000D03*
D16*
X91157996Y-162355000D03*
X90157996Y-162355000D03*
X88657996Y-162355000D03*
X87657996Y-162355000D03*
D15*
X86957996Y-162355000D03*
X86157996Y-162355000D03*
%TD*%
D13*
%TO.C,R2*%
X83058000Y-169060500D03*
X83058000Y-167235500D03*
%TD*%
D17*
%TO.C,D4*%
X113538000Y-137335500D03*
X113538000Y-135460500D03*
%TD*%
D18*
%TO.C,SW1*%
X107466000Y-122638000D03*
X107466000Y-129838000D03*
X110466000Y-122638000D03*
X110466000Y-129838000D03*
%TD*%
D13*
%TO.C,R1*%
X95758000Y-169060500D03*
X95758000Y-167235500D03*
%TD*%
D19*
%TO.C,BZ1*%
X70942200Y-128600200D03*
X70942200Y-117400200D03*
%TD*%
D20*
%TO.C,U2*%
X98376000Y-98417000D03*
X97106000Y-98417000D03*
X95836000Y-98417000D03*
X94566000Y-98417000D03*
X93296000Y-98417000D03*
X92026000Y-98417000D03*
X90756000Y-98417000D03*
X89486000Y-98417000D03*
X78286000Y-98417000D03*
X77016000Y-98417000D03*
X75746000Y-98417000D03*
X75746000Y-114417000D03*
X77016000Y-114417000D03*
X78286000Y-114417000D03*
X89486000Y-114417000D03*
X90756000Y-114417000D03*
X92026000Y-114417000D03*
X93296000Y-114417000D03*
X94566000Y-114417000D03*
X95836000Y-114417000D03*
X97106000Y-114417000D03*
X98376000Y-114417000D03*
%TD*%
D21*
%TO.C,C5*%
X109154000Y-132080000D03*
X107254000Y-132080000D03*
%TD*%
D14*
%TO.C,R17*%
X111506000Y-133961500D03*
X111506000Y-135786500D03*
%TD*%
D13*
%TO.C,R3*%
X90449400Y-118285900D03*
X90449400Y-116460900D03*
%TD*%
D11*
%TO.C,R9*%
X107291500Y-134112000D03*
X109116500Y-134112000D03*
%TD*%
%TO.C,R5*%
X67542400Y-109296200D03*
X69367400Y-109296200D03*
%TD*%
D22*
%TO.C,R11*%
X97686500Y-164846000D03*
X95861500Y-164846000D03*
%TD*%
D13*
%TO.C,R8*%
X74447400Y-160096200D03*
X74447400Y-158271200D03*
%TD*%
D12*
%TO.C,Q1*%
X67517400Y-111394200D03*
X67517400Y-113294200D03*
X69392400Y-112344200D03*
%TD*%
D11*
%TO.C,R15*%
X89765500Y-155194000D03*
X91590500Y-155194000D03*
%TD*%
D22*
%TO.C,R16*%
X89812500Y-153162000D03*
X87987500Y-153162000D03*
%TD*%
D23*
%TO.C,C4*%
X79950900Y-161686200D03*
X79950900Y-163586200D03*
%TD*%
D24*
%TO.C,U4*%
X75511400Y-161686200D03*
X75511400Y-162636200D03*
X75511400Y-163586200D03*
X77786400Y-163586200D03*
X77786400Y-161686200D03*
%TD*%
D25*
%TO.C,C2*%
X96266000Y-158938000D03*
X96266000Y-157038000D03*
%TD*%
D14*
%TO.C,R13*%
X111506000Y-143692000D03*
X111506000Y-145517000D03*
%TD*%
D11*
%TO.C,R10*%
X95861500Y-162814000D03*
X97686500Y-162814000D03*
%TD*%
D24*
%TO.C,U5*%
X87508500Y-157038000D03*
X87508500Y-157988000D03*
X87508500Y-158938000D03*
X89783500Y-158938000D03*
X89783500Y-157038000D03*
%TD*%
D11*
%TO.C,R6*%
X71352400Y-112344200D03*
X73177400Y-112344200D03*
%TD*%
D26*
%TO.C,U3*%
X98991500Y-136013000D03*
X98991500Y-136663000D03*
X98991500Y-137313000D03*
X98991500Y-137963000D03*
X98991500Y-138613000D03*
X98991500Y-139263000D03*
X98991500Y-139913000D03*
X98991500Y-140563000D03*
X98991500Y-141213000D03*
X98991500Y-141863000D03*
X104716500Y-141863000D03*
X104716500Y-141213000D03*
X104716500Y-140563000D03*
X104716500Y-139913000D03*
X104716500Y-139263000D03*
X104716500Y-138613000D03*
X104716500Y-137963000D03*
X104716500Y-137313000D03*
X104716500Y-136663000D03*
X104716500Y-136013000D03*
%TD*%
D17*
%TO.C,D3*%
X113538000Y-142161500D03*
X113538000Y-140286500D03*
%TD*%
D25*
%TO.C,C6*%
X91948000Y-158938000D03*
X91948000Y-157038000D03*
%TD*%
D17*
%TO.C,D2*%
X113538000Y-147066000D03*
X113538000Y-145191000D03*
%TD*%
D23*
%TO.C,C3*%
X96774000Y-137480000D03*
X96774000Y-139380000D03*
%TD*%
D21*
%TO.C,C1*%
X100010000Y-155194000D03*
X98110000Y-155194000D03*
%TD*%
M02*
