%TF.GenerationSoftware,KiCad,Pcbnew,(6.0.4)*%
%TF.CreationDate,2022-04-29T23:06:03+08:00*%
%TF.ProjectId,RFID-mobileV_1_0,52464944-2d6d-46f6-9269-6c65565f315f,rev?*%
%TF.SameCoordinates,Original*%
%TF.FileFunction,Legend,Top*%
%TF.FilePolarity,Positive*%
%FSLAX46Y46*%
G04 Gerber Fmt 4.6, Leading zero omitted, Abs format (unit mm)*
G04 Created by KiCad (PCBNEW (6.0.4)) date 2022-04-29 23:06:03*
%MOMM*%
%LPD*%
G01*
G04 APERTURE LIST*
%ADD10C,0.300000*%
%ADD11C,0.150000*%
%ADD12C,0.120000*%
%ADD13C,0.254000*%
%ADD14C,0.500000*%
G04 APERTURE END LIST*
D10*
X101814286Y-101600000D02*
X101671429Y-101528571D01*
X101457143Y-101528571D01*
X101242857Y-101600000D01*
X101100000Y-101742857D01*
X101028571Y-101885714D01*
X100957143Y-102171428D01*
X100957143Y-102385714D01*
X101028571Y-102671428D01*
X101100000Y-102814285D01*
X101242857Y-102957142D01*
X101457143Y-103028571D01*
X101600000Y-103028571D01*
X101814286Y-102957142D01*
X101885714Y-102885714D01*
X101885714Y-102385714D01*
X101600000Y-102385714D01*
X101171428Y-93828571D02*
X102028571Y-93828571D01*
X101600000Y-95328571D02*
X101600000Y-93828571D01*
X101885714Y-97928571D02*
X101385714Y-97214285D01*
X101028571Y-97928571D02*
X101028571Y-96428571D01*
X101600000Y-96428571D01*
X101742857Y-96500000D01*
X101814286Y-96571428D01*
X101885714Y-96714285D01*
X101885714Y-96928571D01*
X101814286Y-97071428D01*
X101742857Y-97142857D01*
X101600000Y-97214285D01*
X101028571Y-97214285D01*
X101028572Y-91228571D02*
X101528572Y-92728571D01*
X102028572Y-91228571D01*
X97212142Y-121278571D02*
X97712142Y-122778571D01*
X98212142Y-121278571D01*
X99569285Y-122635714D02*
X99497857Y-122707142D01*
X99283571Y-122778571D01*
X99140714Y-122778571D01*
X98926428Y-122707142D01*
X98783571Y-122564285D01*
X98712142Y-122421428D01*
X98640714Y-122135714D01*
X98640714Y-121921428D01*
X98712142Y-121635714D01*
X98783571Y-121492857D01*
X98926428Y-121350000D01*
X99140714Y-121278571D01*
X99283571Y-121278571D01*
X99497857Y-121350000D01*
X99569285Y-121421428D01*
X101069285Y-122635714D02*
X100997857Y-122707142D01*
X100783571Y-122778571D01*
X100640714Y-122778571D01*
X100426428Y-122707142D01*
X100283571Y-122564285D01*
X100212142Y-122421428D01*
X100140714Y-122135714D01*
X100140714Y-121921428D01*
X100212142Y-121635714D01*
X100283571Y-121492857D01*
X100426428Y-121350000D01*
X100640714Y-121278571D01*
X100783571Y-121278571D01*
X100997857Y-121350000D01*
X101069285Y-121421428D01*
X97926428Y-123956250D02*
X97783571Y-123884821D01*
X97569285Y-123884821D01*
X97355000Y-123956250D01*
X97212142Y-124099107D01*
X97140714Y-124241964D01*
X97069285Y-124527678D01*
X97069285Y-124741964D01*
X97140714Y-125027678D01*
X97212142Y-125170535D01*
X97355000Y-125313392D01*
X97569285Y-125384821D01*
X97712142Y-125384821D01*
X97926428Y-125313392D01*
X97997857Y-125241964D01*
X97997857Y-124741964D01*
X97712142Y-124741964D01*
X98640714Y-125384821D02*
X98640714Y-123884821D01*
X99497857Y-125384821D01*
X99497857Y-123884821D01*
X100212142Y-125384821D02*
X100212142Y-123884821D01*
X100569285Y-123884821D01*
X100783571Y-123956250D01*
X100926428Y-124099107D01*
X100997857Y-124241964D01*
X101069285Y-124527678D01*
X101069285Y-124741964D01*
X100997857Y-125027678D01*
X100926428Y-125170535D01*
X100783571Y-125313392D01*
X100569285Y-125384821D01*
X100212142Y-125384821D01*
X94712142Y-127919642D02*
X94926428Y-127991071D01*
X95283571Y-127991071D01*
X95426428Y-127919642D01*
X95497857Y-127848214D01*
X95569285Y-127705357D01*
X95569285Y-127562500D01*
X95497857Y-127419642D01*
X95426428Y-127348214D01*
X95283571Y-127276785D01*
X94997857Y-127205357D01*
X94855000Y-127133928D01*
X94783571Y-127062500D01*
X94712142Y-126919642D01*
X94712142Y-126776785D01*
X94783571Y-126633928D01*
X94855000Y-126562500D01*
X94997857Y-126491071D01*
X95355000Y-126491071D01*
X95569285Y-126562500D01*
X96069285Y-126491071D02*
X96426428Y-127991071D01*
X96712142Y-126919642D01*
X96997857Y-127991071D01*
X97355000Y-126491071D01*
X97926428Y-127991071D02*
X97926428Y-126491071D01*
X98283571Y-126491071D01*
X98497857Y-126562500D01*
X98640714Y-126705357D01*
X98712142Y-126848214D01*
X98783571Y-127133928D01*
X98783571Y-127348214D01*
X98712142Y-127633928D01*
X98640714Y-127776785D01*
X98497857Y-127919642D01*
X98283571Y-127991071D01*
X97926428Y-127991071D01*
X99426428Y-127991071D02*
X99426428Y-126491071D01*
X100426428Y-126491071D02*
X100712142Y-126491071D01*
X100855000Y-126562500D01*
X100997857Y-126705357D01*
X101069285Y-126991071D01*
X101069285Y-127491071D01*
X100997857Y-127776785D01*
X100855000Y-127919642D01*
X100712142Y-127991071D01*
X100426428Y-127991071D01*
X100283571Y-127919642D01*
X100140714Y-127776785D01*
X100069285Y-127491071D01*
X100069285Y-126991071D01*
X100140714Y-126705357D01*
X100283571Y-126562500D01*
X100426428Y-126491071D01*
X94283571Y-130525892D02*
X94497857Y-130597321D01*
X94855000Y-130597321D01*
X94997857Y-130525892D01*
X95069285Y-130454464D01*
X95140714Y-130311607D01*
X95140714Y-130168750D01*
X95069285Y-130025892D01*
X94997857Y-129954464D01*
X94855000Y-129883035D01*
X94569285Y-129811607D01*
X94426428Y-129740178D01*
X94355000Y-129668750D01*
X94283571Y-129525892D01*
X94283571Y-129383035D01*
X94355000Y-129240178D01*
X94426428Y-129168750D01*
X94569285Y-129097321D01*
X94926428Y-129097321D01*
X95140714Y-129168750D01*
X95640714Y-129097321D02*
X95997857Y-130597321D01*
X96283571Y-129525892D01*
X96569285Y-130597321D01*
X96926428Y-129097321D01*
X98355000Y-130454464D02*
X98283571Y-130525892D01*
X98069285Y-130597321D01*
X97926428Y-130597321D01*
X97712142Y-130525892D01*
X97569285Y-130383035D01*
X97497857Y-130240178D01*
X97426428Y-129954464D01*
X97426428Y-129740178D01*
X97497857Y-129454464D01*
X97569285Y-129311607D01*
X97712142Y-129168750D01*
X97926428Y-129097321D01*
X98069285Y-129097321D01*
X98283571Y-129168750D01*
X98355000Y-129240178D01*
X99712142Y-130597321D02*
X98997857Y-130597321D01*
X98997857Y-129097321D01*
X100212142Y-130597321D02*
X100212142Y-129097321D01*
X101069285Y-130597321D02*
X100426428Y-129740178D01*
X101069285Y-129097321D02*
X100212142Y-129954464D01*
X96069285Y-133203571D02*
X96069285Y-131703571D01*
X96926428Y-133203571D01*
X96926428Y-131703571D01*
X98497857Y-133203571D02*
X97997857Y-132489285D01*
X97640714Y-133203571D02*
X97640714Y-131703571D01*
X98212142Y-131703571D01*
X98355000Y-131775000D01*
X98426428Y-131846428D01*
X98497857Y-131989285D01*
X98497857Y-132203571D01*
X98426428Y-132346428D01*
X98355000Y-132417857D01*
X98212142Y-132489285D01*
X97640714Y-132489285D01*
X99069285Y-133132142D02*
X99283571Y-133203571D01*
X99640714Y-133203571D01*
X99783571Y-133132142D01*
X99855000Y-133060714D01*
X99926428Y-132917857D01*
X99926428Y-132775000D01*
X99855000Y-132632142D01*
X99783571Y-132560714D01*
X99640714Y-132489285D01*
X99355000Y-132417857D01*
X99212142Y-132346428D01*
X99140714Y-132275000D01*
X99069285Y-132132142D01*
X99069285Y-131989285D01*
X99140714Y-131846428D01*
X99212142Y-131775000D01*
X99355000Y-131703571D01*
X99712142Y-131703571D01*
X99926428Y-131775000D01*
X100355000Y-131703571D02*
X101212142Y-131703571D01*
X100783571Y-133203571D02*
X100783571Y-131703571D01*
D11*
%TO.C,D1*%
X65380404Y-145866380D02*
X65380404Y-144866380D01*
X65618500Y-144866380D01*
X65761357Y-144914000D01*
X65856595Y-145009238D01*
X65904214Y-145104476D01*
X65951833Y-145294952D01*
X65951833Y-145437809D01*
X65904214Y-145628285D01*
X65856595Y-145723523D01*
X65761357Y-145818761D01*
X65618500Y-145866380D01*
X65380404Y-145866380D01*
X66904214Y-145866380D02*
X66332785Y-145866380D01*
X66618500Y-145866380D02*
X66618500Y-144866380D01*
X66523261Y-145009238D01*
X66428023Y-145104476D01*
X66332785Y-145152095D01*
%TO.C,R12*%
X65475642Y-140534380D02*
X65142309Y-140058190D01*
X64904214Y-140534380D02*
X64904214Y-139534380D01*
X65285166Y-139534380D01*
X65380404Y-139582000D01*
X65428023Y-139629619D01*
X65475642Y-139724857D01*
X65475642Y-139867714D01*
X65428023Y-139962952D01*
X65380404Y-140010571D01*
X65285166Y-140058190D01*
X64904214Y-140058190D01*
X66428023Y-140534380D02*
X65856595Y-140534380D01*
X66142309Y-140534380D02*
X66142309Y-139534380D01*
X66047071Y-139677238D01*
X65951833Y-139772476D01*
X65856595Y-139820095D01*
X66808976Y-139629619D02*
X66856595Y-139582000D01*
X66951833Y-139534380D01*
X67189928Y-139534380D01*
X67285166Y-139582000D01*
X67332785Y-139629619D01*
X67380404Y-139724857D01*
X67380404Y-139820095D01*
X67332785Y-139962952D01*
X66761357Y-140534380D01*
X67380404Y-140534380D01*
%TO.C,U1*%
X98552095Y-159980380D02*
X98552095Y-160789904D01*
X98599714Y-160885142D01*
X98647333Y-160932761D01*
X98742571Y-160980380D01*
X98933047Y-160980380D01*
X99028285Y-160932761D01*
X99075904Y-160885142D01*
X99123523Y-160789904D01*
X99123523Y-159980380D01*
X100123523Y-160980380D02*
X99552095Y-160980380D01*
X99837809Y-160980380D02*
X99837809Y-159980380D01*
X99742571Y-160123238D01*
X99647333Y-160218476D01*
X99552095Y-160266095D01*
%TO.C,R4*%
X92908380Y-120791266D02*
X92432190Y-121124600D01*
X92908380Y-121362695D02*
X91908380Y-121362695D01*
X91908380Y-120981742D01*
X91956000Y-120886504D01*
X92003619Y-120838885D01*
X92098857Y-120791266D01*
X92241714Y-120791266D01*
X92336952Y-120838885D01*
X92384571Y-120886504D01*
X92432190Y-120981742D01*
X92432190Y-121362695D01*
X92241714Y-119934123D02*
X92908380Y-119934123D01*
X91860761Y-120172219D02*
X92575047Y-120410314D01*
X92575047Y-119791266D01*
%TO.C,R14*%
X110434380Y-140342857D02*
X109958190Y-140676190D01*
X110434380Y-140914285D02*
X109434380Y-140914285D01*
X109434380Y-140533333D01*
X109482000Y-140438095D01*
X109529619Y-140390476D01*
X109624857Y-140342857D01*
X109767714Y-140342857D01*
X109862952Y-140390476D01*
X109910571Y-140438095D01*
X109958190Y-140533333D01*
X109958190Y-140914285D01*
X110434380Y-139390476D02*
X110434380Y-139961904D01*
X110434380Y-139676190D02*
X109434380Y-139676190D01*
X109577238Y-139771428D01*
X109672476Y-139866666D01*
X109720095Y-139961904D01*
X109767714Y-138533333D02*
X110434380Y-138533333D01*
X109386761Y-138771428D02*
X110101047Y-139009523D01*
X110101047Y-138390476D01*
%TO.C,R7*%
X75245933Y-157119580D02*
X74912600Y-156643390D01*
X74674504Y-157119580D02*
X74674504Y-156119580D01*
X75055457Y-156119580D01*
X75150695Y-156167200D01*
X75198314Y-156214819D01*
X75245933Y-156310057D01*
X75245933Y-156452914D01*
X75198314Y-156548152D01*
X75150695Y-156595771D01*
X75055457Y-156643390D01*
X74674504Y-156643390D01*
X75579266Y-156119580D02*
X76245933Y-156119580D01*
X75817361Y-157119580D01*
%TO.C,TP3*%
X105181495Y-118118000D02*
X105086257Y-118070380D01*
X104943400Y-118070380D01*
X104800542Y-118118000D01*
X104705304Y-118213238D01*
X104657685Y-118308476D01*
X104610066Y-118498952D01*
X104610066Y-118641809D01*
X104657685Y-118832285D01*
X104705304Y-118927523D01*
X104800542Y-119022761D01*
X104943400Y-119070380D01*
X105038638Y-119070380D01*
X105181495Y-119022761D01*
X105229114Y-118975142D01*
X105229114Y-118641809D01*
X105038638Y-118641809D01*
X105657685Y-119070380D02*
X105657685Y-118070380D01*
X106229114Y-119070380D01*
X106229114Y-118070380D01*
X106705304Y-119070380D02*
X106705304Y-118070380D01*
X106943400Y-118070380D01*
X107086257Y-118118000D01*
X107181495Y-118213238D01*
X107229114Y-118308476D01*
X107276733Y-118498952D01*
X107276733Y-118641809D01*
X107229114Y-118832285D01*
X107181495Y-118927523D01*
X107086257Y-119022761D01*
X106943400Y-119070380D01*
X106705304Y-119070380D01*
%TO.C,J1*%
X82724666Y-161504380D02*
X82724666Y-162218666D01*
X82677047Y-162361523D01*
X82581809Y-162456761D01*
X82438952Y-162504380D01*
X82343714Y-162504380D01*
X83724666Y-162504380D02*
X83153238Y-162504380D01*
X83438952Y-162504380D02*
X83438952Y-161504380D01*
X83343714Y-161647238D01*
X83248476Y-161742476D01*
X83153238Y-161790095D01*
%TO.C,R2*%
X81860380Y-168314666D02*
X81384190Y-168648000D01*
X81860380Y-168886095D02*
X80860380Y-168886095D01*
X80860380Y-168505142D01*
X80908000Y-168409904D01*
X80955619Y-168362285D01*
X81050857Y-168314666D01*
X81193714Y-168314666D01*
X81288952Y-168362285D01*
X81336571Y-168409904D01*
X81384190Y-168505142D01*
X81384190Y-168886095D01*
X80955619Y-167933714D02*
X80908000Y-167886095D01*
X80860380Y-167790857D01*
X80860380Y-167552761D01*
X80908000Y-167457523D01*
X80955619Y-167409904D01*
X81050857Y-167362285D01*
X81146095Y-167362285D01*
X81288952Y-167409904D01*
X81860380Y-167981333D01*
X81860380Y-167362285D01*
%TO.C,D4*%
X112212380Y-138050495D02*
X111212380Y-138050495D01*
X111212380Y-137812400D01*
X111260000Y-137669542D01*
X111355238Y-137574304D01*
X111450476Y-137526685D01*
X111640952Y-137479066D01*
X111783809Y-137479066D01*
X111974285Y-137526685D01*
X112069523Y-137574304D01*
X112164761Y-137669542D01*
X112212380Y-137812400D01*
X112212380Y-138050495D01*
X111545714Y-136621923D02*
X112212380Y-136621923D01*
X111164761Y-136860019D02*
X111879047Y-137098114D01*
X111879047Y-136479066D01*
%TO.C,SW1*%
X106170761Y-127571333D02*
X106218380Y-127428476D01*
X106218380Y-127190380D01*
X106170761Y-127095142D01*
X106123142Y-127047523D01*
X106027904Y-126999904D01*
X105932666Y-126999904D01*
X105837428Y-127047523D01*
X105789809Y-127095142D01*
X105742190Y-127190380D01*
X105694571Y-127380857D01*
X105646952Y-127476095D01*
X105599333Y-127523714D01*
X105504095Y-127571333D01*
X105408857Y-127571333D01*
X105313619Y-127523714D01*
X105266000Y-127476095D01*
X105218380Y-127380857D01*
X105218380Y-127142761D01*
X105266000Y-126999904D01*
X105218380Y-126666571D02*
X106218380Y-126428476D01*
X105504095Y-126238000D01*
X106218380Y-126047523D01*
X105218380Y-125809428D01*
X106218380Y-124904666D02*
X106218380Y-125476095D01*
X106218380Y-125190380D02*
X105218380Y-125190380D01*
X105361238Y-125285619D01*
X105456476Y-125380857D01*
X105504095Y-125476095D01*
%TO.C,R1*%
X97988380Y-168568666D02*
X97512190Y-168902000D01*
X97988380Y-169140095D02*
X96988380Y-169140095D01*
X96988380Y-168759142D01*
X97036000Y-168663904D01*
X97083619Y-168616285D01*
X97178857Y-168568666D01*
X97321714Y-168568666D01*
X97416952Y-168616285D01*
X97464571Y-168663904D01*
X97512190Y-168759142D01*
X97512190Y-169140095D01*
X97988380Y-167616285D02*
X97988380Y-168187714D01*
X97988380Y-167902000D02*
X96988380Y-167902000D01*
X97131238Y-167997238D01*
X97226476Y-168092476D01*
X97274095Y-168187714D01*
%TO.C,BZ1*%
X75141247Y-130040771D02*
X75284104Y-130088390D01*
X75331723Y-130136009D01*
X75379342Y-130231247D01*
X75379342Y-130374104D01*
X75331723Y-130469342D01*
X75284104Y-130516961D01*
X75188866Y-130564580D01*
X74807914Y-130564580D01*
X74807914Y-129564580D01*
X75141247Y-129564580D01*
X75236485Y-129612200D01*
X75284104Y-129659819D01*
X75331723Y-129755057D01*
X75331723Y-129850295D01*
X75284104Y-129945533D01*
X75236485Y-129993152D01*
X75141247Y-130040771D01*
X74807914Y-130040771D01*
X75712676Y-129564580D02*
X76379342Y-129564580D01*
X75712676Y-130564580D01*
X76379342Y-130564580D01*
X77284104Y-130564580D02*
X76712676Y-130564580D01*
X76998390Y-130564580D02*
X76998390Y-129564580D01*
X76903152Y-129707438D01*
X76807914Y-129802676D01*
X76712676Y-129850295D01*
%TO.C,U2*%
X78310095Y-109551380D02*
X78310095Y-110360904D01*
X78357714Y-110456142D01*
X78405333Y-110503761D01*
X78500571Y-110551380D01*
X78691047Y-110551380D01*
X78786285Y-110503761D01*
X78833904Y-110456142D01*
X78881523Y-110360904D01*
X78881523Y-109551380D01*
X79310095Y-109646619D02*
X79357714Y-109599000D01*
X79452952Y-109551380D01*
X79691047Y-109551380D01*
X79786285Y-109599000D01*
X79833904Y-109646619D01*
X79881523Y-109741857D01*
X79881523Y-109837095D01*
X79833904Y-109979952D01*
X79262476Y-110551380D01*
X79881523Y-110551380D01*
%TO.C,C5*%
X105243333Y-132691142D02*
X105195714Y-132738761D01*
X105052857Y-132786380D01*
X104957619Y-132786380D01*
X104814761Y-132738761D01*
X104719523Y-132643523D01*
X104671904Y-132548285D01*
X104624285Y-132357809D01*
X104624285Y-132214952D01*
X104671904Y-132024476D01*
X104719523Y-131929238D01*
X104814761Y-131834000D01*
X104957619Y-131786380D01*
X105052857Y-131786380D01*
X105195714Y-131834000D01*
X105243333Y-131881619D01*
X106148095Y-131786380D02*
X105671904Y-131786380D01*
X105624285Y-132262571D01*
X105671904Y-132214952D01*
X105767142Y-132167333D01*
X106005238Y-132167333D01*
X106100476Y-132214952D01*
X106148095Y-132262571D01*
X106195714Y-132357809D01*
X106195714Y-132595904D01*
X106148095Y-132691142D01*
X106100476Y-132738761D01*
X106005238Y-132786380D01*
X105767142Y-132786380D01*
X105671904Y-132738761D01*
X105624285Y-132691142D01*
%TO.C,R17*%
X112720380Y-132468857D02*
X112244190Y-132802190D01*
X112720380Y-133040285D02*
X111720380Y-133040285D01*
X111720380Y-132659333D01*
X111768000Y-132564095D01*
X111815619Y-132516476D01*
X111910857Y-132468857D01*
X112053714Y-132468857D01*
X112148952Y-132516476D01*
X112196571Y-132564095D01*
X112244190Y-132659333D01*
X112244190Y-133040285D01*
X112720380Y-131516476D02*
X112720380Y-132087904D01*
X112720380Y-131802190D02*
X111720380Y-131802190D01*
X111863238Y-131897428D01*
X111958476Y-131992666D01*
X112006095Y-132087904D01*
X111720380Y-131183142D02*
X111720380Y-130516476D01*
X112720380Y-130945047D01*
%TO.C,BT1*%
X74322085Y-151693571D02*
X74464942Y-151741190D01*
X74512561Y-151788809D01*
X74560180Y-151884047D01*
X74560180Y-152026904D01*
X74512561Y-152122142D01*
X74464942Y-152169761D01*
X74369704Y-152217380D01*
X73988752Y-152217380D01*
X73988752Y-151217380D01*
X74322085Y-151217380D01*
X74417323Y-151265000D01*
X74464942Y-151312619D01*
X74512561Y-151407857D01*
X74512561Y-151503095D01*
X74464942Y-151598333D01*
X74417323Y-151645952D01*
X74322085Y-151693571D01*
X73988752Y-151693571D01*
X74845895Y-151217380D02*
X75417323Y-151217380D01*
X75131609Y-152217380D02*
X75131609Y-151217380D01*
X76274466Y-152217380D02*
X75703038Y-152217380D01*
X75988752Y-152217380D02*
X75988752Y-151217380D01*
X75893514Y-151360238D01*
X75798276Y-151455476D01*
X75703038Y-151503095D01*
%TO.C,R3*%
X91155780Y-120791266D02*
X90679590Y-121124600D01*
X91155780Y-121362695D02*
X90155780Y-121362695D01*
X90155780Y-120981742D01*
X90203400Y-120886504D01*
X90251019Y-120838885D01*
X90346257Y-120791266D01*
X90489114Y-120791266D01*
X90584352Y-120838885D01*
X90631971Y-120886504D01*
X90679590Y-120981742D01*
X90679590Y-121362695D01*
X90155780Y-120457933D02*
X90155780Y-119838885D01*
X90536733Y-120172219D01*
X90536733Y-120029361D01*
X90584352Y-119934123D01*
X90631971Y-119886504D01*
X90727209Y-119838885D01*
X90965304Y-119838885D01*
X91060542Y-119886504D01*
X91108161Y-119934123D01*
X91155780Y-120029361D01*
X91155780Y-120315076D01*
X91108161Y-120410314D01*
X91060542Y-120457933D01*
%TO.C,J3*%
X102741666Y-119527380D02*
X102741666Y-120241666D01*
X102694047Y-120384523D01*
X102598809Y-120479761D01*
X102455952Y-120527380D01*
X102360714Y-120527380D01*
X103122619Y-119527380D02*
X103741666Y-119527380D01*
X103408333Y-119908333D01*
X103551190Y-119908333D01*
X103646428Y-119955952D01*
X103694047Y-120003571D01*
X103741666Y-120098809D01*
X103741666Y-120336904D01*
X103694047Y-120432142D01*
X103646428Y-120479761D01*
X103551190Y-120527380D01*
X103265476Y-120527380D01*
X103170238Y-120479761D01*
X103122619Y-120432142D01*
%TO.C,R9*%
X105243333Y-134564380D02*
X104910000Y-134088190D01*
X104671904Y-134564380D02*
X104671904Y-133564380D01*
X105052857Y-133564380D01*
X105148095Y-133612000D01*
X105195714Y-133659619D01*
X105243333Y-133754857D01*
X105243333Y-133897714D01*
X105195714Y-133992952D01*
X105148095Y-134040571D01*
X105052857Y-134088190D01*
X104671904Y-134088190D01*
X105719523Y-134564380D02*
X105910000Y-134564380D01*
X106005238Y-134516761D01*
X106052857Y-134469142D01*
X106148095Y-134326285D01*
X106195714Y-134135809D01*
X106195714Y-133754857D01*
X106148095Y-133659619D01*
X106100476Y-133612000D01*
X106005238Y-133564380D01*
X105814761Y-133564380D01*
X105719523Y-133612000D01*
X105671904Y-133659619D01*
X105624285Y-133754857D01*
X105624285Y-133992952D01*
X105671904Y-134088190D01*
X105719523Y-134135809D01*
X105814761Y-134183428D01*
X106005238Y-134183428D01*
X106100476Y-134135809D01*
X106148095Y-134088190D01*
X106195714Y-133992952D01*
%TO.C,R5*%
X68288233Y-108098580D02*
X67954900Y-107622390D01*
X67716804Y-108098580D02*
X67716804Y-107098580D01*
X68097757Y-107098580D01*
X68192995Y-107146200D01*
X68240614Y-107193819D01*
X68288233Y-107289057D01*
X68288233Y-107431914D01*
X68240614Y-107527152D01*
X68192995Y-107574771D01*
X68097757Y-107622390D01*
X67716804Y-107622390D01*
X69192995Y-107098580D02*
X68716804Y-107098580D01*
X68669185Y-107574771D01*
X68716804Y-107527152D01*
X68812042Y-107479533D01*
X69050138Y-107479533D01*
X69145376Y-107527152D01*
X69192995Y-107574771D01*
X69240614Y-107670009D01*
X69240614Y-107908104D01*
X69192995Y-108003342D01*
X69145376Y-108050961D01*
X69050138Y-108098580D01*
X68812042Y-108098580D01*
X68716804Y-108050961D01*
X68669185Y-108003342D01*
%TO.C,R11*%
X99433142Y-165298380D02*
X99099809Y-164822190D01*
X98861714Y-165298380D02*
X98861714Y-164298380D01*
X99242666Y-164298380D01*
X99337904Y-164346000D01*
X99385523Y-164393619D01*
X99433142Y-164488857D01*
X99433142Y-164631714D01*
X99385523Y-164726952D01*
X99337904Y-164774571D01*
X99242666Y-164822190D01*
X98861714Y-164822190D01*
X100385523Y-165298380D02*
X99814095Y-165298380D01*
X100099809Y-165298380D02*
X100099809Y-164298380D01*
X100004571Y-164441238D01*
X99909333Y-164536476D01*
X99814095Y-164584095D01*
X101337904Y-165298380D02*
X100766476Y-165298380D01*
X101052190Y-165298380D02*
X101052190Y-164298380D01*
X100956952Y-164441238D01*
X100861714Y-164536476D01*
X100766476Y-164584095D01*
%TO.C,R8*%
X72324933Y-160777180D02*
X71991600Y-160300990D01*
X71753504Y-160777180D02*
X71753504Y-159777180D01*
X72134457Y-159777180D01*
X72229695Y-159824800D01*
X72277314Y-159872419D01*
X72324933Y-159967657D01*
X72324933Y-160110514D01*
X72277314Y-160205752D01*
X72229695Y-160253371D01*
X72134457Y-160300990D01*
X71753504Y-160300990D01*
X72896361Y-160205752D02*
X72801123Y-160158133D01*
X72753504Y-160110514D01*
X72705885Y-160015276D01*
X72705885Y-159967657D01*
X72753504Y-159872419D01*
X72801123Y-159824800D01*
X72896361Y-159777180D01*
X73086838Y-159777180D01*
X73182076Y-159824800D01*
X73229695Y-159872419D01*
X73277314Y-159967657D01*
X73277314Y-160015276D01*
X73229695Y-160110514D01*
X73182076Y-160158133D01*
X73086838Y-160205752D01*
X72896361Y-160205752D01*
X72801123Y-160253371D01*
X72753504Y-160300990D01*
X72705885Y-160396228D01*
X72705885Y-160586704D01*
X72753504Y-160681942D01*
X72801123Y-160729561D01*
X72896361Y-160777180D01*
X73086838Y-160777180D01*
X73182076Y-160729561D01*
X73229695Y-160681942D01*
X73277314Y-160586704D01*
X73277314Y-160396228D01*
X73229695Y-160300990D01*
X73182076Y-160253371D01*
X73086838Y-160205752D01*
%TO.C,Q1*%
X65565661Y-112891819D02*
X65470423Y-112844200D01*
X65375185Y-112748961D01*
X65232328Y-112606104D01*
X65137090Y-112558485D01*
X65041852Y-112558485D01*
X65089471Y-112796580D02*
X64994233Y-112748961D01*
X64898995Y-112653723D01*
X64851376Y-112463247D01*
X64851376Y-112129914D01*
X64898995Y-111939438D01*
X64994233Y-111844200D01*
X65089471Y-111796580D01*
X65279947Y-111796580D01*
X65375185Y-111844200D01*
X65470423Y-111939438D01*
X65518042Y-112129914D01*
X65518042Y-112463247D01*
X65470423Y-112653723D01*
X65375185Y-112748961D01*
X65279947Y-112796580D01*
X65089471Y-112796580D01*
X66470423Y-112796580D02*
X65898995Y-112796580D01*
X66184709Y-112796580D02*
X66184709Y-111796580D01*
X66089471Y-111939438D01*
X65994233Y-112034676D01*
X65898995Y-112082295D01*
%TO.C,R15*%
X91559142Y-153996380D02*
X91225809Y-153520190D01*
X90987714Y-153996380D02*
X90987714Y-152996380D01*
X91368666Y-152996380D01*
X91463904Y-153044000D01*
X91511523Y-153091619D01*
X91559142Y-153186857D01*
X91559142Y-153329714D01*
X91511523Y-153424952D01*
X91463904Y-153472571D01*
X91368666Y-153520190D01*
X90987714Y-153520190D01*
X92511523Y-153996380D02*
X91940095Y-153996380D01*
X92225809Y-153996380D02*
X92225809Y-152996380D01*
X92130571Y-153139238D01*
X92035333Y-153234476D01*
X91940095Y-153282095D01*
X93416285Y-152996380D02*
X92940095Y-152996380D01*
X92892476Y-153472571D01*
X92940095Y-153424952D01*
X93035333Y-153377333D01*
X93273428Y-153377333D01*
X93368666Y-153424952D01*
X93416285Y-153472571D01*
X93463904Y-153567809D01*
X93463904Y-153805904D01*
X93416285Y-153901142D01*
X93368666Y-153948761D01*
X93273428Y-153996380D01*
X93035333Y-153996380D01*
X92940095Y-153948761D01*
X92892476Y-153901142D01*
%TO.C,R16*%
X90797142Y-152090380D02*
X90463809Y-151614190D01*
X90225714Y-152090380D02*
X90225714Y-151090380D01*
X90606666Y-151090380D01*
X90701904Y-151138000D01*
X90749523Y-151185619D01*
X90797142Y-151280857D01*
X90797142Y-151423714D01*
X90749523Y-151518952D01*
X90701904Y-151566571D01*
X90606666Y-151614190D01*
X90225714Y-151614190D01*
X91749523Y-152090380D02*
X91178095Y-152090380D01*
X91463809Y-152090380D02*
X91463809Y-151090380D01*
X91368571Y-151233238D01*
X91273333Y-151328476D01*
X91178095Y-151376095D01*
X92606666Y-151090380D02*
X92416190Y-151090380D01*
X92320952Y-151138000D01*
X92273333Y-151185619D01*
X92178095Y-151328476D01*
X92130476Y-151518952D01*
X92130476Y-151899904D01*
X92178095Y-151995142D01*
X92225714Y-152042761D01*
X92320952Y-152090380D01*
X92511428Y-152090380D01*
X92606666Y-152042761D01*
X92654285Y-151995142D01*
X92701904Y-151899904D01*
X92701904Y-151661809D01*
X92654285Y-151566571D01*
X92606666Y-151518952D01*
X92511428Y-151471333D01*
X92320952Y-151471333D01*
X92225714Y-151518952D01*
X92178095Y-151566571D01*
X92130476Y-151661809D01*
%TO.C,TP2*%
X104289409Y-114844580D02*
X104908457Y-114844580D01*
X104575123Y-115225533D01*
X104717980Y-115225533D01*
X104813219Y-115273152D01*
X104860838Y-115320771D01*
X104908457Y-115416009D01*
X104908457Y-115654104D01*
X104860838Y-115749342D01*
X104813219Y-115796961D01*
X104717980Y-115844580D01*
X104432266Y-115844580D01*
X104337028Y-115796961D01*
X104289409Y-115749342D01*
X105337028Y-115749342D02*
X105384647Y-115796961D01*
X105337028Y-115844580D01*
X105289409Y-115796961D01*
X105337028Y-115749342D01*
X105337028Y-115844580D01*
X105717980Y-114844580D02*
X106337028Y-114844580D01*
X106003695Y-115225533D01*
X106146552Y-115225533D01*
X106241790Y-115273152D01*
X106289409Y-115320771D01*
X106337028Y-115416009D01*
X106337028Y-115654104D01*
X106289409Y-115749342D01*
X106241790Y-115796961D01*
X106146552Y-115844580D01*
X105860838Y-115844580D01*
X105765600Y-115796961D01*
X105717980Y-115749342D01*
X106622742Y-114844580D02*
X106956076Y-115844580D01*
X107289409Y-114844580D01*
%TO.C,TP1*%
X102471500Y-112085380D02*
X102138166Y-111609190D01*
X101900071Y-112085380D02*
X101900071Y-111085380D01*
X102281023Y-111085380D01*
X102376261Y-111133000D01*
X102423880Y-111180619D01*
X102471500Y-111275857D01*
X102471500Y-111418714D01*
X102423880Y-111513952D01*
X102376261Y-111561571D01*
X102281023Y-111609190D01*
X101900071Y-111609190D01*
X103233404Y-111561571D02*
X102900071Y-111561571D01*
X102900071Y-112085380D02*
X102900071Y-111085380D01*
X103376261Y-111085380D01*
X103757214Y-112085380D02*
X103757214Y-111085380D01*
X104233404Y-112085380D02*
X104233404Y-111085380D01*
X104471500Y-111085380D01*
X104614357Y-111133000D01*
X104709595Y-111228238D01*
X104757214Y-111323476D01*
X104804833Y-111513952D01*
X104804833Y-111656809D01*
X104757214Y-111847285D01*
X104709595Y-111942523D01*
X104614357Y-112037761D01*
X104471500Y-112085380D01*
X104233404Y-112085380D01*
X104995309Y-112180619D02*
X105757214Y-112180619D01*
X105852452Y-111085380D02*
X106423880Y-111085380D01*
X106138166Y-112085380D02*
X106138166Y-111085380D01*
X106661976Y-111085380D02*
X107328642Y-112085380D01*
X107328642Y-111085380D02*
X106661976Y-112085380D01*
%TO.C,C4*%
X81988042Y-162802866D02*
X82035661Y-162850485D01*
X82083280Y-162993342D01*
X82083280Y-163088580D01*
X82035661Y-163231438D01*
X81940423Y-163326676D01*
X81845185Y-163374295D01*
X81654709Y-163421914D01*
X81511852Y-163421914D01*
X81321376Y-163374295D01*
X81226138Y-163326676D01*
X81130900Y-163231438D01*
X81083280Y-163088580D01*
X81083280Y-162993342D01*
X81130900Y-162850485D01*
X81178519Y-162802866D01*
X81416614Y-161945723D02*
X82083280Y-161945723D01*
X81035661Y-162183819D02*
X81749947Y-162421914D01*
X81749947Y-161802866D01*
%TO.C,U4*%
X77156995Y-164374580D02*
X77156995Y-165184104D01*
X77204614Y-165279342D01*
X77252233Y-165326961D01*
X77347471Y-165374580D01*
X77537947Y-165374580D01*
X77633185Y-165326961D01*
X77680804Y-165279342D01*
X77728423Y-165184104D01*
X77728423Y-164374580D01*
X78633185Y-164707914D02*
X78633185Y-165374580D01*
X78395090Y-164326961D02*
X78156995Y-165041247D01*
X78776042Y-165041247D01*
%TO.C,C2*%
X96099333Y-160885142D02*
X96051714Y-160932761D01*
X95908857Y-160980380D01*
X95813619Y-160980380D01*
X95670761Y-160932761D01*
X95575523Y-160837523D01*
X95527904Y-160742285D01*
X95480285Y-160551809D01*
X95480285Y-160408952D01*
X95527904Y-160218476D01*
X95575523Y-160123238D01*
X95670761Y-160028000D01*
X95813619Y-159980380D01*
X95908857Y-159980380D01*
X96051714Y-160028000D01*
X96099333Y-160075619D01*
X96480285Y-160075619D02*
X96527904Y-160028000D01*
X96623142Y-159980380D01*
X96861238Y-159980380D01*
X96956476Y-160028000D01*
X97004095Y-160075619D01*
X97051714Y-160170857D01*
X97051714Y-160266095D01*
X97004095Y-160408952D01*
X96432666Y-160980380D01*
X97051714Y-160980380D01*
%TO.C,R13*%
X110434380Y-146184857D02*
X109958190Y-146518190D01*
X110434380Y-146756285D02*
X109434380Y-146756285D01*
X109434380Y-146375333D01*
X109482000Y-146280095D01*
X109529619Y-146232476D01*
X109624857Y-146184857D01*
X109767714Y-146184857D01*
X109862952Y-146232476D01*
X109910571Y-146280095D01*
X109958190Y-146375333D01*
X109958190Y-146756285D01*
X110434380Y-145232476D02*
X110434380Y-145803904D01*
X110434380Y-145518190D02*
X109434380Y-145518190D01*
X109577238Y-145613428D01*
X109672476Y-145708666D01*
X109720095Y-145803904D01*
X109434380Y-144899142D02*
X109434380Y-144280095D01*
X109815333Y-144613428D01*
X109815333Y-144470571D01*
X109862952Y-144375333D01*
X109910571Y-144327714D01*
X110005809Y-144280095D01*
X110243904Y-144280095D01*
X110339142Y-144327714D01*
X110386761Y-144375333D01*
X110434380Y-144470571D01*
X110434380Y-144756285D01*
X110386761Y-144851523D01*
X110339142Y-144899142D01*
%TO.C,R10*%
X99433142Y-162758380D02*
X99099809Y-162282190D01*
X98861714Y-162758380D02*
X98861714Y-161758380D01*
X99242666Y-161758380D01*
X99337904Y-161806000D01*
X99385523Y-161853619D01*
X99433142Y-161948857D01*
X99433142Y-162091714D01*
X99385523Y-162186952D01*
X99337904Y-162234571D01*
X99242666Y-162282190D01*
X98861714Y-162282190D01*
X100385523Y-162758380D02*
X99814095Y-162758380D01*
X100099809Y-162758380D02*
X100099809Y-161758380D01*
X100004571Y-161901238D01*
X99909333Y-161996476D01*
X99814095Y-162044095D01*
X101004571Y-161758380D02*
X101099809Y-161758380D01*
X101195047Y-161806000D01*
X101242666Y-161853619D01*
X101290285Y-161948857D01*
X101337904Y-162139333D01*
X101337904Y-162377428D01*
X101290285Y-162567904D01*
X101242666Y-162663142D01*
X101195047Y-162710761D01*
X101099809Y-162758380D01*
X101004571Y-162758380D01*
X100909333Y-162710761D01*
X100861714Y-162663142D01*
X100814095Y-162567904D01*
X100766476Y-162377428D01*
X100766476Y-162139333D01*
X100814095Y-161948857D01*
X100861714Y-161853619D01*
X100909333Y-161806000D01*
X101004571Y-161758380D01*
%TO.C,U5*%
X86868095Y-155040380D02*
X86868095Y-155849904D01*
X86915714Y-155945142D01*
X86963333Y-155992761D01*
X87058571Y-156040380D01*
X87249047Y-156040380D01*
X87344285Y-155992761D01*
X87391904Y-155945142D01*
X87439523Y-155849904D01*
X87439523Y-155040380D01*
X88391904Y-155040380D02*
X87915714Y-155040380D01*
X87868095Y-155516571D01*
X87915714Y-155468952D01*
X88010952Y-155421333D01*
X88249047Y-155421333D01*
X88344285Y-155468952D01*
X88391904Y-155516571D01*
X88439523Y-155611809D01*
X88439523Y-155849904D01*
X88391904Y-155945142D01*
X88344285Y-155992761D01*
X88249047Y-156040380D01*
X88010952Y-156040380D01*
X87915714Y-155992761D01*
X87868095Y-155945142D01*
%TO.C,J4*%
X103806666Y-89070380D02*
X103806666Y-89784666D01*
X103759047Y-89927523D01*
X103663809Y-90022761D01*
X103520952Y-90070380D01*
X103425714Y-90070380D01*
X104711428Y-89403714D02*
X104711428Y-90070380D01*
X104473333Y-89022761D02*
X104235238Y-89737047D01*
X104854285Y-89737047D01*
%TO.C,R6*%
X72098233Y-111146580D02*
X71764900Y-110670390D01*
X71526804Y-111146580D02*
X71526804Y-110146580D01*
X71907757Y-110146580D01*
X72002995Y-110194200D01*
X72050614Y-110241819D01*
X72098233Y-110337057D01*
X72098233Y-110479914D01*
X72050614Y-110575152D01*
X72002995Y-110622771D01*
X71907757Y-110670390D01*
X71526804Y-110670390D01*
X72955376Y-110146580D02*
X72764900Y-110146580D01*
X72669661Y-110194200D01*
X72622042Y-110241819D01*
X72526804Y-110384676D01*
X72479185Y-110575152D01*
X72479185Y-110956104D01*
X72526804Y-111051342D01*
X72574423Y-111098961D01*
X72669661Y-111146580D01*
X72860138Y-111146580D01*
X72955376Y-111098961D01*
X73002995Y-111051342D01*
X73050614Y-110956104D01*
X73050614Y-110718009D01*
X73002995Y-110622771D01*
X72955376Y-110575152D01*
X72860138Y-110527533D01*
X72669661Y-110527533D01*
X72574423Y-110575152D01*
X72526804Y-110622771D01*
X72479185Y-110718009D01*
%TO.C,AE1*%
X92813333Y-94756266D02*
X93289523Y-94756266D01*
X92718095Y-95041980D02*
X93051428Y-94041980D01*
X93384761Y-95041980D01*
X93718095Y-94518171D02*
X94051428Y-94518171D01*
X94194285Y-95041980D02*
X93718095Y-95041980D01*
X93718095Y-94041980D01*
X94194285Y-94041980D01*
X95146666Y-95041980D02*
X94575238Y-95041980D01*
X94860952Y-95041980D02*
X94860952Y-94041980D01*
X94765714Y-94184838D01*
X94670476Y-94280076D01*
X94575238Y-94327695D01*
%TO.C,J2*%
X112188666Y-105839380D02*
X112188666Y-106553666D01*
X112141047Y-106696523D01*
X112045809Y-106791761D01*
X111902952Y-106839380D01*
X111807714Y-106839380D01*
X112617238Y-105934619D02*
X112664857Y-105887000D01*
X112760095Y-105839380D01*
X112998190Y-105839380D01*
X113093428Y-105887000D01*
X113141047Y-105934619D01*
X113188666Y-106029857D01*
X113188666Y-106125095D01*
X113141047Y-106267952D01*
X112569619Y-106839380D01*
X113188666Y-106839380D01*
%TO.C,U3*%
X102463095Y-134277380D02*
X102463095Y-135086904D01*
X102510714Y-135182142D01*
X102558333Y-135229761D01*
X102653571Y-135277380D01*
X102844047Y-135277380D01*
X102939285Y-135229761D01*
X102986904Y-135182142D01*
X103034523Y-135086904D01*
X103034523Y-134277380D01*
X103415476Y-134277380D02*
X104034523Y-134277380D01*
X103701190Y-134658333D01*
X103844047Y-134658333D01*
X103939285Y-134705952D01*
X103986904Y-134753571D01*
X104034523Y-134848809D01*
X104034523Y-135086904D01*
X103986904Y-135182142D01*
X103939285Y-135229761D01*
X103844047Y-135277380D01*
X103558333Y-135277380D01*
X103463095Y-135229761D01*
X103415476Y-135182142D01*
%TO.C,D3*%
X112340380Y-142978095D02*
X111340380Y-142978095D01*
X111340380Y-142740000D01*
X111388000Y-142597142D01*
X111483238Y-142501904D01*
X111578476Y-142454285D01*
X111768952Y-142406666D01*
X111911809Y-142406666D01*
X112102285Y-142454285D01*
X112197523Y-142501904D01*
X112292761Y-142597142D01*
X112340380Y-142740000D01*
X112340380Y-142978095D01*
X111340380Y-142073333D02*
X111340380Y-141454285D01*
X111721333Y-141787619D01*
X111721333Y-141644761D01*
X111768952Y-141549523D01*
X111816571Y-141501904D01*
X111911809Y-141454285D01*
X112149904Y-141454285D01*
X112245142Y-141501904D01*
X112292761Y-141549523D01*
X112340380Y-141644761D01*
X112340380Y-141930476D01*
X112292761Y-142025714D01*
X112245142Y-142073333D01*
%TO.C,C6*%
X91781333Y-160885142D02*
X91733714Y-160932761D01*
X91590857Y-160980380D01*
X91495619Y-160980380D01*
X91352761Y-160932761D01*
X91257523Y-160837523D01*
X91209904Y-160742285D01*
X91162285Y-160551809D01*
X91162285Y-160408952D01*
X91209904Y-160218476D01*
X91257523Y-160123238D01*
X91352761Y-160028000D01*
X91495619Y-159980380D01*
X91590857Y-159980380D01*
X91733714Y-160028000D01*
X91781333Y-160075619D01*
X92638476Y-159980380D02*
X92448000Y-159980380D01*
X92352761Y-160028000D01*
X92305142Y-160075619D01*
X92209904Y-160218476D01*
X92162285Y-160408952D01*
X92162285Y-160789904D01*
X92209904Y-160885142D01*
X92257523Y-160932761D01*
X92352761Y-160980380D01*
X92543238Y-160980380D01*
X92638476Y-160932761D01*
X92686095Y-160885142D01*
X92733714Y-160789904D01*
X92733714Y-160551809D01*
X92686095Y-160456571D01*
X92638476Y-160408952D01*
X92543238Y-160361333D01*
X92352761Y-160361333D01*
X92257523Y-160408952D01*
X92209904Y-160456571D01*
X92162285Y-160551809D01*
%TO.C,D2*%
X112212380Y-147804095D02*
X111212380Y-147804095D01*
X111212380Y-147566000D01*
X111260000Y-147423142D01*
X111355238Y-147327904D01*
X111450476Y-147280285D01*
X111640952Y-147232666D01*
X111783809Y-147232666D01*
X111974285Y-147280285D01*
X112069523Y-147327904D01*
X112164761Y-147423142D01*
X112212380Y-147566000D01*
X112212380Y-147804095D01*
X111307619Y-146851714D02*
X111260000Y-146804095D01*
X111212380Y-146708857D01*
X111212380Y-146470761D01*
X111260000Y-146375523D01*
X111307619Y-146327904D01*
X111402857Y-146280285D01*
X111498095Y-146280285D01*
X111640952Y-146327904D01*
X112212380Y-146899333D01*
X112212380Y-146280285D01*
%TO.C,C3*%
X97131142Y-141390666D02*
X97178761Y-141438285D01*
X97226380Y-141581142D01*
X97226380Y-141676380D01*
X97178761Y-141819238D01*
X97083523Y-141914476D01*
X96988285Y-141962095D01*
X96797809Y-142009714D01*
X96654952Y-142009714D01*
X96464476Y-141962095D01*
X96369238Y-141914476D01*
X96274000Y-141819238D01*
X96226380Y-141676380D01*
X96226380Y-141581142D01*
X96274000Y-141438285D01*
X96321619Y-141390666D01*
X96226380Y-141057333D02*
X96226380Y-140438285D01*
X96607333Y-140771619D01*
X96607333Y-140628761D01*
X96654952Y-140533523D01*
X96702571Y-140485904D01*
X96797809Y-140438285D01*
X97035904Y-140438285D01*
X97131142Y-140485904D01*
X97178761Y-140533523D01*
X97226380Y-140628761D01*
X97226380Y-140914476D01*
X97178761Y-141009714D01*
X97131142Y-141057333D01*
%TO.C,C1*%
X101687333Y-155551142D02*
X101639714Y-155598761D01*
X101496857Y-155646380D01*
X101401619Y-155646380D01*
X101258761Y-155598761D01*
X101163523Y-155503523D01*
X101115904Y-155408285D01*
X101068285Y-155217809D01*
X101068285Y-155074952D01*
X101115904Y-154884476D01*
X101163523Y-154789238D01*
X101258761Y-154694000D01*
X101401619Y-154646380D01*
X101496857Y-154646380D01*
X101639714Y-154694000D01*
X101687333Y-154741619D01*
X102639714Y-155646380D02*
X102068285Y-155646380D01*
X102354000Y-155646380D02*
X102354000Y-154646380D01*
X102258761Y-154789238D01*
X102163523Y-154884476D01*
X102068285Y-154932095D01*
D12*
%TO.C,D1*%
X67803500Y-144724000D02*
X67803500Y-142804000D01*
X65118500Y-144724000D02*
X67803500Y-144724000D01*
X67803500Y-142804000D02*
X65118500Y-142804000D01*
%TO.C,R12*%
X65891436Y-140997000D02*
X66345564Y-140997000D01*
X65891436Y-142467000D02*
X66345564Y-142467000D01*
%TO.C,U1*%
X99314000Y-159548000D02*
X99964000Y-159548000D01*
X99314000Y-159548000D02*
X98664000Y-159548000D01*
X99314000Y-156428000D02*
X97639000Y-156428000D01*
X99314000Y-156428000D02*
X99964000Y-156428000D01*
%TO.C,R4*%
X91721000Y-117600464D02*
X91721000Y-117146336D01*
X93191000Y-117600464D02*
X93191000Y-117146336D01*
%TO.C,R14*%
X112241000Y-139472936D02*
X112241000Y-139927064D01*
X110771000Y-139472936D02*
X110771000Y-139927064D01*
%TO.C,R7*%
X77214400Y-158956636D02*
X77214400Y-159410764D01*
X75744400Y-158956636D02*
X75744400Y-159410764D01*
%TO.C,TP3*%
X109916000Y-119568000D02*
X108016000Y-119568000D01*
X108016000Y-117668000D02*
X109916000Y-117668000D01*
X108016000Y-119568000D02*
X108016000Y-117668000D01*
X109916000Y-117668000D02*
X109916000Y-119568000D01*
%TO.C,J1*%
X84707996Y-164500000D02*
X84707996Y-166500000D01*
X94107996Y-168400000D02*
X94107996Y-170300000D01*
X94107996Y-164500000D02*
X94107996Y-166500000D01*
X84707996Y-170300000D02*
X94107996Y-170300000D01*
X84707996Y-168400000D02*
X84707996Y-170300000D01*
%TO.C,R2*%
X83793000Y-168375064D02*
X83793000Y-167920936D01*
X82323000Y-168375064D02*
X82323000Y-167920936D01*
%TO.C,D4*%
X114498000Y-138083000D02*
X114498000Y-135398000D01*
X112578000Y-138083000D02*
X114498000Y-138083000D01*
X112578000Y-135398000D02*
X112578000Y-138083000D01*
%TO.C,SW1*%
X111336000Y-123868000D02*
X110936000Y-123868000D01*
X106596000Y-123868000D02*
X106996000Y-123868000D01*
X111336000Y-128608000D02*
X111336000Y-123868000D01*
X106596000Y-128608000D02*
X106996000Y-128608000D01*
X109996000Y-123868000D02*
X107936000Y-123868000D01*
X106596000Y-128608000D02*
X106596000Y-123868000D01*
X109996000Y-128608000D02*
X107936000Y-128608000D01*
X111336000Y-128608000D02*
X110936000Y-128608000D01*
%TO.C,R1*%
X96493000Y-168375064D02*
X96493000Y-167920936D01*
X95023000Y-168375064D02*
X95023000Y-167920936D01*
%TO.C,BZ1*%
X64822200Y-116880200D02*
X68682200Y-116880200D01*
X77062200Y-116880200D02*
X77062200Y-129120200D01*
X68682200Y-129120200D02*
X68682200Y-129420200D01*
X73202200Y-116880200D02*
X77062200Y-116880200D01*
X64822200Y-129120200D02*
X64822200Y-116880200D01*
X77062200Y-129120200D02*
X73202200Y-129120200D01*
X68682200Y-129120200D02*
X64822200Y-129120200D01*
D13*
%TO.C,U2*%
X99011000Y-112767000D02*
X76151000Y-112767000D01*
X74376000Y-98417000D02*
X74376000Y-114417000D01*
X100376000Y-98417000D02*
X99057000Y-98417000D01*
X100376000Y-114417000D02*
X99057000Y-114417000D01*
X88805000Y-98417000D02*
X78967000Y-98417000D01*
X76151000Y-112767000D02*
X76151000Y-103877000D01*
X75065000Y-114417000D02*
X74376000Y-114417000D01*
X76151000Y-103877000D02*
X79961000Y-103877000D01*
X79961000Y-100067000D02*
X99011000Y-100067000D01*
X99011000Y-100067000D02*
X99011000Y-112767000D01*
X100376000Y-98417000D02*
X100376000Y-114417000D01*
X75065000Y-98417000D02*
X74376000Y-98417000D01*
X79961000Y-103877000D02*
X79961000Y-100067000D01*
X88805000Y-114417000D02*
X78967000Y-114417000D01*
D14*
X99966500Y-97527000D02*
G75*
G03*
X99966500Y-97527000I-250000J0D01*
G01*
D12*
%TO.C,C5*%
X108465252Y-131345000D02*
X107942748Y-131345000D01*
X108465252Y-132815000D02*
X107942748Y-132815000D01*
%TO.C,R17*%
X110771000Y-134646936D02*
X110771000Y-135101064D01*
X112241000Y-134646936D02*
X112241000Y-135101064D01*
%TO.C,BT1*%
X80772000Y-155914000D02*
X80772000Y-156914000D01*
X78232000Y-155914000D02*
X78482000Y-155384000D01*
X76562000Y-151924000D02*
X76562000Y-155924000D01*
X78232000Y-155914000D02*
X80772000Y-155914000D01*
X82152000Y-156914000D02*
X82152000Y-150894000D01*
X79972000Y-151494000D02*
X81572000Y-151494000D01*
X80522000Y-156914000D02*
X80522000Y-155914000D01*
X78482000Y-156914000D02*
X78482000Y-155914000D01*
X80522000Y-155384000D02*
X80772000Y-155914000D01*
X81572000Y-151494000D02*
X81572000Y-150894000D01*
X79032000Y-151494000D02*
X79032000Y-150894000D01*
X78232000Y-156914000D02*
X78232000Y-155914000D01*
X76852000Y-156914000D02*
X82152000Y-156914000D01*
X77432000Y-150894000D02*
X77432000Y-151494000D01*
X78482000Y-155384000D02*
X80522000Y-155384000D01*
X77432000Y-151494000D02*
X79032000Y-151494000D01*
X79972000Y-150894000D02*
X79972000Y-151494000D01*
X82152000Y-150894000D02*
X76852000Y-150894000D01*
X76852000Y-150894000D02*
X76852000Y-156914000D01*
%TO.C,R3*%
X89714400Y-117600464D02*
X89714400Y-117146336D01*
X91184400Y-117600464D02*
X91184400Y-117146336D01*
%TO.C,J3*%
X101794000Y-123444000D02*
X104454000Y-123444000D01*
X101794000Y-123444000D02*
X101794000Y-133664000D01*
X101794000Y-122174000D02*
X101794000Y-120844000D01*
X104454000Y-123444000D02*
X104454000Y-133664000D01*
X101794000Y-133664000D02*
X104454000Y-133664000D01*
X101794000Y-120844000D02*
X103124000Y-120844000D01*
%TO.C,R9*%
X107976936Y-134847000D02*
X108431064Y-134847000D01*
X107976936Y-133377000D02*
X108431064Y-133377000D01*
%TO.C,R5*%
X68227836Y-110031200D02*
X68681964Y-110031200D01*
X68227836Y-108561200D02*
X68681964Y-108561200D01*
%TO.C,R11*%
X97001064Y-165581000D02*
X96546936Y-165581000D01*
X97001064Y-164111000D02*
X96546936Y-164111000D01*
%TO.C,R8*%
X75182400Y-159410764D02*
X75182400Y-158956636D01*
X73712400Y-159410764D02*
X73712400Y-158956636D01*
%TO.C,Q1*%
X68454900Y-113904200D02*
X69104900Y-113904200D01*
X68454900Y-110784200D02*
X69104900Y-110784200D01*
X68454900Y-113904200D02*
X67804900Y-113904200D01*
X68454900Y-110784200D02*
X66779900Y-110784200D01*
%TO.C,R15*%
X90450936Y-155929000D02*
X90905064Y-155929000D01*
X90450936Y-154459000D02*
X90905064Y-154459000D01*
%TO.C,R16*%
X89127064Y-152427000D02*
X88672936Y-152427000D01*
X89127064Y-153897000D02*
X88672936Y-153897000D01*
%TO.C,TP2*%
X108016000Y-114112000D02*
X109916000Y-114112000D01*
X109916000Y-114112000D02*
X109916000Y-116012000D01*
X109916000Y-116012000D02*
X108016000Y-116012000D01*
X108016000Y-116012000D02*
X108016000Y-114112000D01*
%TO.C,TP1*%
X108016000Y-110556000D02*
X109916000Y-110556000D01*
X109916000Y-112456000D02*
X108016000Y-112456000D01*
X108016000Y-112456000D02*
X108016000Y-110556000D01*
X109916000Y-110556000D02*
X109916000Y-112456000D01*
%TO.C,C4*%
X80685900Y-162374948D02*
X80685900Y-162897452D01*
X79215900Y-162374948D02*
X79215900Y-162897452D01*
%TO.C,U4*%
X76648900Y-161076200D02*
X77448900Y-161076200D01*
X76648900Y-164196200D02*
X77448900Y-164196200D01*
X76648900Y-161076200D02*
X74848900Y-161076200D01*
X76648900Y-164196200D02*
X75848900Y-164196200D01*
%TO.C,C2*%
X95531000Y-158249252D02*
X95531000Y-157726748D01*
X97001000Y-158249252D02*
X97001000Y-157726748D01*
%TO.C,R13*%
X110771000Y-144377436D02*
X110771000Y-144831564D01*
X112241000Y-144377436D02*
X112241000Y-144831564D01*
%TO.C,R10*%
X96546936Y-162079000D02*
X97001064Y-162079000D01*
X96546936Y-163549000D02*
X97001064Y-163549000D01*
%TO.C,U5*%
X88646000Y-159548000D02*
X87846000Y-159548000D01*
X88646000Y-156428000D02*
X89446000Y-156428000D01*
X88646000Y-159548000D02*
X89446000Y-159548000D01*
X88646000Y-156428000D02*
X86846000Y-156428000D01*
%TO.C,J4*%
X102810000Y-93218000D02*
X105470000Y-93218000D01*
X105470000Y-93218000D02*
X105470000Y-103438000D01*
X102810000Y-103438000D02*
X105470000Y-103438000D01*
X102810000Y-90618000D02*
X104140000Y-90618000D01*
X102810000Y-91948000D02*
X102810000Y-90618000D01*
X102810000Y-93218000D02*
X102810000Y-103438000D01*
%TO.C,R6*%
X72037836Y-111609200D02*
X72491964Y-111609200D01*
X72037836Y-113079200D02*
X72491964Y-113079200D01*
%TO.C,J2*%
X111192000Y-108717000D02*
X111192000Y-107387000D01*
X113852000Y-109987000D02*
X113852000Y-120207000D01*
X111192000Y-120207000D02*
X113852000Y-120207000D01*
X111192000Y-109987000D02*
X111192000Y-120207000D01*
X111192000Y-109987000D02*
X113852000Y-109987000D01*
X111192000Y-107387000D02*
X112522000Y-107387000D01*
%TO.C,U3*%
X101854000Y-135553000D02*
X98254000Y-135553000D01*
X101854000Y-142323000D02*
X99654000Y-142323000D01*
X101854000Y-135553000D02*
X104054000Y-135553000D01*
X101854000Y-142323000D02*
X104054000Y-142323000D01*
%TO.C,D3*%
X112578000Y-140224000D02*
X112578000Y-142909000D01*
X114498000Y-142909000D02*
X114498000Y-140224000D01*
X112578000Y-142909000D02*
X114498000Y-142909000D01*
%TO.C,C6*%
X91213000Y-158249252D02*
X91213000Y-157726748D01*
X92683000Y-158249252D02*
X92683000Y-157726748D01*
%TO.C,D2*%
X112578000Y-147813500D02*
X114498000Y-147813500D01*
X112578000Y-145128500D02*
X112578000Y-147813500D01*
X114498000Y-147813500D02*
X114498000Y-145128500D01*
%TO.C,C3*%
X96039000Y-138168748D02*
X96039000Y-138691252D01*
X97509000Y-138168748D02*
X97509000Y-138691252D01*
%TO.C,C1*%
X99321252Y-154459000D02*
X98798748Y-154459000D01*
X99321252Y-155929000D02*
X98798748Y-155929000D01*
%TD*%
M02*
