%TF.GenerationSoftware,KiCad,Pcbnew,(6.0.4)*%
%TF.CreationDate,2022-04-29T23:06:03+08:00*%
%TF.ProjectId,RFID-mobileV_1_0,52464944-2d6d-46f6-9269-6c65565f315f,rev?*%
%TF.SameCoordinates,Original*%
%TF.FileFunction,Legend,Bot*%
%TF.FilePolarity,Positive*%
%FSLAX46Y46*%
G04 Gerber Fmt 4.6, Leading zero omitted, Abs format (unit mm)*
G04 Created by KiCad (PCBNEW (6.0.4)) date 2022-04-29 23:06:03*
%MOMM*%
%LPD*%
G01*
G04 APERTURE LIST*
%ADD10C,0.200000*%
%ADD11C,0.300000*%
%ADD12C,0.150000*%
%ADD13C,0.120000*%
G04 APERTURE END LIST*
D10*
X85623400Y-103835200D02*
X75768200Y-103835200D01*
X75768200Y-103835200D02*
X75768200Y-118821200D01*
X75768200Y-118821200D02*
X85623400Y-118821200D01*
X85623400Y-118821200D02*
X85623400Y-103835200D01*
D11*
X76328071Y-104815914D02*
X77399500Y-104815914D01*
X77613785Y-104744485D01*
X77756642Y-104601628D01*
X77828071Y-104387342D01*
X77828071Y-104244485D01*
X77828071Y-105530200D02*
X76328071Y-105530200D01*
X76328071Y-106101628D01*
X76399500Y-106244485D01*
X76470928Y-106315914D01*
X76613785Y-106387342D01*
X76828071Y-106387342D01*
X76970928Y-106315914D01*
X77042357Y-106244485D01*
X77113785Y-106101628D01*
X77113785Y-105530200D01*
X77828071Y-107815914D02*
X77828071Y-106958771D01*
X77828071Y-107387342D02*
X76328071Y-107387342D01*
X76542357Y-107244485D01*
X76685214Y-107101628D01*
X76756642Y-106958771D01*
X77685214Y-108458771D02*
X77756642Y-108530200D01*
X77828071Y-108458771D01*
X77756642Y-108387342D01*
X77685214Y-108458771D01*
X77828071Y-108458771D01*
X76899500Y-108458771D02*
X76970928Y-108530200D01*
X77042357Y-108458771D01*
X76970928Y-108387342D01*
X76899500Y-108458771D01*
X77042357Y-108458771D01*
X77828071Y-109173057D02*
X76328071Y-109173057D01*
X77399500Y-109673057D01*
X76328071Y-110173057D01*
X77828071Y-110173057D01*
X76328071Y-111173057D02*
X76328071Y-111315914D01*
X76399500Y-111458771D01*
X76470928Y-111530200D01*
X76613785Y-111601628D01*
X76899500Y-111673057D01*
X77256642Y-111673057D01*
X77542357Y-111601628D01*
X77685214Y-111530200D01*
X77756642Y-111458771D01*
X77828071Y-111315914D01*
X77828071Y-111173057D01*
X77756642Y-111030200D01*
X77685214Y-110958771D01*
X77542357Y-110887342D01*
X77256642Y-110815914D01*
X76899500Y-110815914D01*
X76613785Y-110887342D01*
X76470928Y-110958771D01*
X76399500Y-111030200D01*
X76328071Y-111173057D01*
X78743071Y-104815914D02*
X79814500Y-104815914D01*
X80028785Y-104744485D01*
X80171642Y-104601628D01*
X80243071Y-104387342D01*
X80243071Y-104244485D01*
X80243071Y-105530200D02*
X78743071Y-105530200D01*
X78743071Y-106101628D01*
X78814500Y-106244485D01*
X78885928Y-106315914D01*
X79028785Y-106387342D01*
X79243071Y-106387342D01*
X79385928Y-106315914D01*
X79457357Y-106244485D01*
X79528785Y-106101628D01*
X79528785Y-105530200D01*
X78885928Y-106958771D02*
X78814500Y-107030200D01*
X78743071Y-107173057D01*
X78743071Y-107530200D01*
X78814500Y-107673057D01*
X78885928Y-107744485D01*
X79028785Y-107815914D01*
X79171642Y-107815914D01*
X79385928Y-107744485D01*
X80243071Y-106887342D01*
X80243071Y-107815914D01*
X80100214Y-108458771D02*
X80171642Y-108530200D01*
X80243071Y-108458771D01*
X80171642Y-108387342D01*
X80100214Y-108458771D01*
X80243071Y-108458771D01*
X79314500Y-108458771D02*
X79385928Y-108530200D01*
X79457357Y-108458771D01*
X79385928Y-108387342D01*
X79314500Y-108458771D01*
X79457357Y-108458771D01*
X80243071Y-109173057D02*
X78743071Y-109173057D01*
X79814500Y-109673057D01*
X78743071Y-110173057D01*
X80243071Y-110173057D01*
X80243071Y-111673057D02*
X80243071Y-110815914D01*
X80243071Y-111244485D02*
X78743071Y-111244485D01*
X78957357Y-111101628D01*
X79100214Y-110958771D01*
X79171642Y-110815914D01*
X81158071Y-104815914D02*
X82229500Y-104815914D01*
X82443785Y-104744485D01*
X82586642Y-104601628D01*
X82658071Y-104387342D01*
X82658071Y-104244485D01*
X82658071Y-105530200D02*
X81158071Y-105530200D01*
X81158071Y-106101628D01*
X81229500Y-106244485D01*
X81300928Y-106315914D01*
X81443785Y-106387342D01*
X81658071Y-106387342D01*
X81800928Y-106315914D01*
X81872357Y-106244485D01*
X81943785Y-106101628D01*
X81943785Y-105530200D01*
X81158071Y-106887342D02*
X81158071Y-107815914D01*
X81729500Y-107315914D01*
X81729500Y-107530200D01*
X81800928Y-107673057D01*
X81872357Y-107744485D01*
X82015214Y-107815914D01*
X82372357Y-107815914D01*
X82515214Y-107744485D01*
X82586642Y-107673057D01*
X82658071Y-107530200D01*
X82658071Y-107101628D01*
X82586642Y-106958771D01*
X82515214Y-106887342D01*
X82515214Y-108458771D02*
X82586642Y-108530200D01*
X82658071Y-108458771D01*
X82586642Y-108387342D01*
X82515214Y-108458771D01*
X82658071Y-108458771D01*
X81729500Y-108458771D02*
X81800928Y-108530200D01*
X81872357Y-108458771D01*
X81800928Y-108387342D01*
X81729500Y-108458771D01*
X81872357Y-108458771D01*
X82658071Y-109887342D02*
X82658071Y-109173057D01*
X81158071Y-109173057D01*
X82658071Y-110601628D02*
X82586642Y-110458771D01*
X82515214Y-110387342D01*
X82372357Y-110315914D01*
X81943785Y-110315914D01*
X81800928Y-110387342D01*
X81729500Y-110458771D01*
X81658071Y-110601628D01*
X81658071Y-110815914D01*
X81729500Y-110958771D01*
X81800928Y-111030200D01*
X81943785Y-111101628D01*
X82372357Y-111101628D01*
X82515214Y-111030200D01*
X82586642Y-110958771D01*
X82658071Y-110815914D01*
X82658071Y-110601628D01*
X82658071Y-112601628D02*
X81943785Y-112101628D01*
X82658071Y-111744485D02*
X81158071Y-111744485D01*
X81158071Y-112315914D01*
X81229500Y-112458771D01*
X81300928Y-112530200D01*
X81443785Y-112601628D01*
X81658071Y-112601628D01*
X81800928Y-112530200D01*
X81872357Y-112458771D01*
X81943785Y-112315914D01*
X81943785Y-111744485D01*
X82658071Y-113887342D02*
X81872357Y-113887342D01*
X81729500Y-113815914D01*
X81658071Y-113673057D01*
X81658071Y-113387342D01*
X81729500Y-113244485D01*
X82586642Y-113887342D02*
X82658071Y-113744485D01*
X82658071Y-113387342D01*
X82586642Y-113244485D01*
X82443785Y-113173057D01*
X82300928Y-113173057D01*
X82158071Y-113244485D01*
X82086642Y-113387342D01*
X82086642Y-113744485D01*
X82015214Y-113887342D01*
X82658071Y-116601628D02*
X81943785Y-116101628D01*
X82658071Y-115744485D02*
X81158071Y-115744485D01*
X81158071Y-116315914D01*
X81229500Y-116458771D01*
X81300928Y-116530200D01*
X81443785Y-116601628D01*
X81658071Y-116601628D01*
X81800928Y-116530200D01*
X81872357Y-116458771D01*
X81943785Y-116315914D01*
X81943785Y-115744485D01*
X81158071Y-117101628D02*
X82658071Y-118101628D01*
X81158071Y-118101628D02*
X82658071Y-117101628D01*
X83573071Y-104815914D02*
X84644500Y-104815914D01*
X84858785Y-104744485D01*
X85001642Y-104601628D01*
X85073071Y-104387342D01*
X85073071Y-104244485D01*
X85073071Y-105530200D02*
X83573071Y-105530200D01*
X83573071Y-106101628D01*
X83644500Y-106244485D01*
X83715928Y-106315914D01*
X83858785Y-106387342D01*
X84073071Y-106387342D01*
X84215928Y-106315914D01*
X84287357Y-106244485D01*
X84358785Y-106101628D01*
X84358785Y-105530200D01*
X84073071Y-107673057D02*
X85073071Y-107673057D01*
X83501642Y-107315914D02*
X84573071Y-106958771D01*
X84573071Y-107887342D01*
X84930214Y-108458771D02*
X85001642Y-108530200D01*
X85073071Y-108458771D01*
X85001642Y-108387342D01*
X84930214Y-108458771D01*
X85073071Y-108458771D01*
X84144500Y-108458771D02*
X84215928Y-108530200D01*
X84287357Y-108458771D01*
X84215928Y-108387342D01*
X84144500Y-108458771D01*
X84287357Y-108458771D01*
X85073071Y-109887342D02*
X85073071Y-109173057D01*
X83573071Y-109173057D01*
X85073071Y-110601628D02*
X85001642Y-110458771D01*
X84930214Y-110387342D01*
X84787357Y-110315914D01*
X84358785Y-110315914D01*
X84215928Y-110387342D01*
X84144500Y-110458771D01*
X84073071Y-110601628D01*
X84073071Y-110815914D01*
X84144500Y-110958771D01*
X84215928Y-111030200D01*
X84358785Y-111101628D01*
X84787357Y-111101628D01*
X84930214Y-111030200D01*
X85001642Y-110958771D01*
X85073071Y-110815914D01*
X85073071Y-110601628D01*
X85073071Y-111744485D02*
X84073071Y-111744485D01*
X84358785Y-111744485D02*
X84215928Y-111815914D01*
X84144500Y-111887342D01*
X84073071Y-112030200D01*
X84073071Y-112173057D01*
X85073071Y-113315914D02*
X84287357Y-113315914D01*
X84144500Y-113244485D01*
X84073071Y-113101628D01*
X84073071Y-112815914D01*
X84144500Y-112673057D01*
X85001642Y-113315914D02*
X85073071Y-113173057D01*
X85073071Y-112815914D01*
X85001642Y-112673057D01*
X84858785Y-112601628D01*
X84715928Y-112601628D01*
X84573071Y-112673057D01*
X84501642Y-112815914D01*
X84501642Y-113173057D01*
X84430214Y-113315914D01*
X83573071Y-114958771D02*
X83573071Y-115815914D01*
X85073071Y-115387342D02*
X83573071Y-115387342D01*
X83573071Y-116173057D02*
X85073071Y-117173057D01*
X83573071Y-117173057D02*
X85073071Y-116173057D01*
D12*
%TO.C,JP3*%
X92416380Y-108386666D02*
X93130666Y-108386666D01*
X93273523Y-108339047D01*
X93368761Y-108243809D01*
X93416380Y-108100952D01*
X93416380Y-108005714D01*
X93416380Y-108862857D02*
X92416380Y-108862857D01*
X92416380Y-109243809D01*
X92464000Y-109339047D01*
X92511619Y-109386666D01*
X92606857Y-109434285D01*
X92749714Y-109434285D01*
X92844952Y-109386666D01*
X92892571Y-109339047D01*
X92940190Y-109243809D01*
X92940190Y-108862857D01*
X92416380Y-109767619D02*
X92416380Y-110386666D01*
X92797333Y-110053333D01*
X92797333Y-110196190D01*
X92844952Y-110291428D01*
X92892571Y-110339047D01*
X92987809Y-110386666D01*
X93225904Y-110386666D01*
X93321142Y-110339047D01*
X93368761Y-110291428D01*
X93416380Y-110196190D01*
X93416380Y-109910476D01*
X93368761Y-109815238D01*
X93321142Y-109767619D01*
%TO.C,JP2*%
X89622380Y-108386666D02*
X90336666Y-108386666D01*
X90479523Y-108339047D01*
X90574761Y-108243809D01*
X90622380Y-108100952D01*
X90622380Y-108005714D01*
X90622380Y-108862857D02*
X89622380Y-108862857D01*
X89622380Y-109243809D01*
X89670000Y-109339047D01*
X89717619Y-109386666D01*
X89812857Y-109434285D01*
X89955714Y-109434285D01*
X90050952Y-109386666D01*
X90098571Y-109339047D01*
X90146190Y-109243809D01*
X90146190Y-108862857D01*
X89717619Y-109815238D02*
X89670000Y-109862857D01*
X89622380Y-109958095D01*
X89622380Y-110196190D01*
X89670000Y-110291428D01*
X89717619Y-110339047D01*
X89812857Y-110386666D01*
X89908095Y-110386666D01*
X90050952Y-110339047D01*
X90622380Y-109767619D01*
X90622380Y-110386666D01*
%TO.C,JP4*%
X94702380Y-108386666D02*
X95416666Y-108386666D01*
X95559523Y-108339047D01*
X95654761Y-108243809D01*
X95702380Y-108100952D01*
X95702380Y-108005714D01*
X95702380Y-108862857D02*
X94702380Y-108862857D01*
X94702380Y-109243809D01*
X94750000Y-109339047D01*
X94797619Y-109386666D01*
X94892857Y-109434285D01*
X95035714Y-109434285D01*
X95130952Y-109386666D01*
X95178571Y-109339047D01*
X95226190Y-109243809D01*
X95226190Y-108862857D01*
X95035714Y-110291428D02*
X95702380Y-110291428D01*
X94654761Y-110053333D02*
X95369047Y-109815238D01*
X95369047Y-110434285D01*
%TO.C,JP1*%
X87082380Y-108386666D02*
X87796666Y-108386666D01*
X87939523Y-108339047D01*
X88034761Y-108243809D01*
X88082380Y-108100952D01*
X88082380Y-108005714D01*
X88082380Y-108862857D02*
X87082380Y-108862857D01*
X87082380Y-109243809D01*
X87130000Y-109339047D01*
X87177619Y-109386666D01*
X87272857Y-109434285D01*
X87415714Y-109434285D01*
X87510952Y-109386666D01*
X87558571Y-109339047D01*
X87606190Y-109243809D01*
X87606190Y-108862857D01*
X88082380Y-110386666D02*
X88082380Y-109815238D01*
X88082380Y-110100952D02*
X87082380Y-110100952D01*
X87225238Y-110005714D01*
X87320476Y-109910476D01*
X87368095Y-109815238D01*
D13*
%TO.C,JP3*%
X91710000Y-105472000D02*
X91710000Y-106872000D01*
X93010000Y-104772000D02*
X92410000Y-104772000D01*
X93710000Y-106872000D02*
X93710000Y-105472000D01*
X92410000Y-107572000D02*
X93010000Y-107572000D01*
X92410000Y-104772000D02*
G75*
G03*
X91710000Y-105472000I0J-700000D01*
G01*
X93710000Y-105472000D02*
G75*
G03*
X93010000Y-104772000I-700000J0D01*
G01*
X93010000Y-107572000D02*
G75*
G03*
X93710000Y-106872000I1J699999D01*
G01*
X91710000Y-106872000D02*
G75*
G03*
X92410000Y-107572000I699999J-1D01*
G01*
%TO.C,JP2*%
X91170000Y-106872000D02*
X91170000Y-105472000D01*
X90470000Y-104772000D02*
X89870000Y-104772000D01*
X89170000Y-105472000D02*
X89170000Y-106872000D01*
X89870000Y-107572000D02*
X90470000Y-107572000D01*
X90470000Y-107572000D02*
G75*
G03*
X91170000Y-106872000I1J699999D01*
G01*
X89870000Y-104772000D02*
G75*
G03*
X89170000Y-105472000I0J-700000D01*
G01*
X91170000Y-105472000D02*
G75*
G03*
X90470000Y-104772000I-700000J0D01*
G01*
X89170000Y-106872000D02*
G75*
G03*
X89870000Y-107572000I699999J-1D01*
G01*
%TO.C,JP4*%
X96250000Y-106872000D02*
X96250000Y-105472000D01*
X94250000Y-105472000D02*
X94250000Y-106872000D01*
X95550000Y-104772000D02*
X94950000Y-104772000D01*
X94950000Y-107572000D02*
X95550000Y-107572000D01*
X94250000Y-106872000D02*
G75*
G03*
X94950000Y-107572000I699999J-1D01*
G01*
X94950000Y-104772000D02*
G75*
G03*
X94250000Y-105472000I0J-700000D01*
G01*
X95550000Y-107572000D02*
G75*
G03*
X96250000Y-106872000I1J699999D01*
G01*
X96250000Y-105472000D02*
G75*
G03*
X95550000Y-104772000I-700000J0D01*
G01*
%TO.C,JP1*%
X88630000Y-106872000D02*
X88630000Y-105472000D01*
X87930000Y-104772000D02*
X87330000Y-104772000D01*
X87330000Y-107572000D02*
X87930000Y-107572000D01*
X86630000Y-105472000D02*
X86630000Y-106872000D01*
X87330000Y-104772000D02*
G75*
G03*
X86630000Y-105472000I0J-700000D01*
G01*
X86630000Y-106872000D02*
G75*
G03*
X87330000Y-107572000I699999J-1D01*
G01*
X88630000Y-105472000D02*
G75*
G03*
X87930000Y-104772000I-700000J0D01*
G01*
X87930000Y-107572000D02*
G75*
G03*
X88630000Y-106872000I1J699999D01*
G01*
%TD*%
M02*
