M48
; DRILL file {KiCad (6.0.4)} date Fri Apr 29 23:06:03 2022
; FORMAT={-:-/ absolute / inch / decimal}
; #@! TF.CreationDate,2022-04-29T23:06:03+08:00
; #@! TF.GenerationSoftware,Kicad,Pcbnew,(6.0.4)
; #@! TF.FileFunction,Plated,1,2,PTH
FMAT,2
INCH
; #@! TA.AperFunction,Plated,PTH,ViaDrill
T1C0.0157
; #@! TA.AperFunction,Plated,PTH,ComponentDrill
T2C0.0236
; #@! TA.AperFunction,Plated,PTH,ComponentDrill
T3C0.0394
; #@! TA.AperFunction,Plated,PTH,ComponentDrill
T4C0.0469
%
G90
G05
T1
X2.73Y-5.56
X2.8Y-5.626
X2.9065Y-4.5217
X3.1309Y-5.9803
X3.133Y-6.525
X3.2057Y-6.1457
X3.25Y-5.75
X3.43Y-5.97
X3.455Y-4.354
X3.556Y-4.361
X3.58Y-5.4
X3.58Y-5.44
X3.65Y-4.37
X3.65Y-5.4
X3.65Y-5.44
X3.66Y-4.05
X3.66Y-6.01
X3.67Y-6.12
X3.68Y-6.18
X3.72Y-4.6
X3.72Y-4.68
X3.75Y-4.08
X3.75Y-4.37
X3.7539Y-5.4154
X3.79Y-6.12
X3.84Y-4.59
X3.84Y-4.67
X4.018Y-5.501
X4.02Y-6.07
X4.06Y-5.45
X4.06Y-5.5566
X4.14Y-4.89
X4.19Y-5.42
X4.19Y-5.46
X4.209Y-4.481
X4.31Y-5.65
X4.3491Y-4.9809
X4.35Y-5.41
X4.37Y-5.6
T3
X4.06Y-4.81
X4.06Y-4.91
X4.06Y-5.01
X4.06Y-5.11
X4.06Y-5.21
X4.1Y-3.62
X4.1Y-3.72
X4.1Y-3.82
X4.1Y-3.92
X4.1Y-4.02
X4.43Y-4.2802
X4.43Y-4.3802
X4.43Y-4.4802
X4.43Y-4.5802
X4.43Y-4.6802
T4
X3.08Y-6.06
X3.18Y-6.06
T2
G00X3.3499Y-6.4063
M15
G01X3.3499Y-6.4496
M16
G05
G00X3.3499Y-6.5807
M15
G01X3.3499Y-6.6043
M16
G05
G00X3.6901Y-6.4063
M15
G01X3.6901Y-6.4496
M16
G05
G00X3.6901Y-6.5807
M15
G01X3.6901Y-6.6043
M16
G05
T0
M30
